  0
SECTION
  2
HEADER
  9
$ACADVER
  1
AC1014
  9
$ACADMAINTVER
 70
     9
  9
$DWGCODEPAGE
  3
ANSI_1252
  9
$INSBASE
 10
0.0
 20
0.0
 30
0.0
  9
$EXTMIN
 10
20.0
 20
10.0
 30
0.0
  9
$EXTMAX
 10
297.384048
 20
200.0
 30
0.0
  9
$LIMMIN
 10
0.0
 20
0.0
  9
$LIMMAX
 10
12.0
 20
9.0
  9
$ORTHOMODE
 70
     0
  9
$REGENMODE
 70
     1
  9
$FILLMODE
 70
     1
  9
$QTEXTMODE
 70
     0
  9
$MIRRTEXT
 70
     1
  9
$DRAGMODE
 70
     2
  9
$LTSCALE
 40
12.7
  9
$OSMODE
 70
    23
  9
$ATTMODE
 70
     1
  9
$TEXTSIZE
 40
3.5
  9
$TRACEWID
 40
0.05
  9
$TEXTSTYLE
  7
ONSHAPE-STANDARD
  9
$CLAYER
  8
0
  9
$CELTYPE
  6
BYLAYER
  9
$CECOLOR
 62
   256
  9
$CELTSCALE
 40
1.0
  9
$DELOBJ
 70
     1
  9
$DISPSILH
 70
     0
  9
$DIMSCALE
 40
1.0
  9
$DIMASZ
 40
2.5
  9
$DIMEXO
 40
0.625
  9
$DIMDLI
 40
3.75
  9
$DIMRND
 40
0.0
  9
$DIMDLE
 40
0.0
  9
$DIMEXE
 40
1.25
  9
$DIMTP
 40
0.0
  9
$DIMTM
 40
0.0
  9
$DIMTXT
 40
3.5
  9
$DIMCEN
 40
2.5
  9
$DIMTSZ
 40
0.0
  9
$DIMTOL
 70
     0
  9
$DIMLIM
 70
     0
  9
$DIMTIH
 70
     0
  9
$DIMTOH
 70
     0
  9
$DIMSE1
 70
     0
  9
$DIMSE2
 70
     0
  9
$DIMTAD
 70
     1
  9
$DIMZIN
 70
     8
  9
$DIMBLK
  1

  9
$DIMASO
 70
     1
  9
$DIMSHO
 70
     1
  9
$DIMPOST
  1

  9
$DIMAPOST
  1

  9
$DIMALT
 70
     0
  9
$DIMALTD
 70
     3
  9
$DIMALTF
 40
0.03937
  9
$DIMLFAC
 40
6.0
  9
$DIMTOFL
 70
     1
  9
$DIMTVP
 40
0.0
  9
$DIMTIX
 70
     0
  9
$DIMSOXD
 70
     0
  9
$DIMSAH
 70
     0
  9
$DIMBLK1
  1

  9
$DIMBLK2
  1

  9
$DIMSTYLE
  2
ONSHAPE-ISO-25
  9
$DIMCLRD
 70
     7
  9
$DIMCLRE
 70
     7
  9
$DIMCLRT
 70
     7
  9
$DIMTFAC
 40
1.0
  9
$DIMGAP
 40
0.625
  9
$DIMJUST
 70
     0
  9
$DIMSD1
 70
     0
  9
$DIMSD2
 70
     0
  9
$DIMTOLJ
 70
     0
  9
$DIMTZIN
 70
     8
  9
$DIMALTZ
 70
     8
  9
$DIMALTTZ
 70
     0
  9
$DIMFIT
 70
     3
  9
$DIMUPT
 70
     1
  9
$DIMUNIT
 70
     2
  9
$DIMDEC
 70
     2
  9
$DIMTDEC
 70
     2
  9
$DIMALTU
 70
     2
  9
$DIMALTTD
 70
     3
  9
$DIMTXSTY
  7
ONSHAPE-STANDARD-DIMENSION
  9
$DIMAUNIT
 70
     0
  9
$LUNITS
 70
     2
  9
$LUPREC
 70
     4
  9
$SKETCHINC
 40
0.1
  9
$FILLETRAD
 40
0.5
  9
$AUNITS
 70
     0
  9
$AUPREC
 70
     0
  9
$MENU
  1
.
  9
$ELEVATION
 40
0.0
  9
$PELEVATION
 40
0.0
  9
$THICKNESS
 40
0.0
  9
$LIMCHECK
 70
     0
  9
$CHAMFERA
 40
0.0
  9
$CHAMFERB
 40
0.0
  9
$CHAMFERC
 40
0.0
  9
$CHAMFERD
 40
0.0
  9
$SKPOLY
 70
     0
  9
$TDCREATE
 40
2461131.385892176
  9
$TDUPDATE
 40
2461131.385892685
  9
$TDINDWG
 40
0.0
  9
$TDUSRTIMER
 40
0.0
  9
$USRTIMER
 70
     1
  9
$ANGBASE
 50
0.0
  9
$ANGDIR
 70
     0
  9
$PDMODE
 70
    33
  9
$PDSIZE
 40
1.0
  9
$PLINEWID
 40
0.0
  9
$COORDS
 70
     1
  9
$SPLFRAME
 70
     0
  9
$SPLINETYPE
 70
     6
  9
$SPLINESEGS
 70
     8
  9
$ATTDIA
 70
     0
  9
$ATTREQ
 70
     1
  9
$HANDLING
 70
     1
  9
$HANDSEED
  5
25E
  9
$SURFTAB1
 70
     6
  9
$SURFTAB2
 70
     6
  9
$SURFTYPE
 70
     6
  9
$SURFU
 70
     6
  9
$SURFV
 70
     6
  9
$UCSNAME
  2

  9
$UCSORG
 10
0.0
 20
0.0
 30
0.0
  9
$UCSXDIR
 10
1.0
 20
0.0
 30
0.0
  9
$UCSYDIR
 10
0.0
 20
1.0
 30
0.0
  9
$PUCSNAME
  2

  9
$PUCSORG
 10
0.0
 20
0.0
 30
0.0
  9
$PUCSXDIR
 10
1.0
 20
0.0
 30
0.0
  9
$PUCSYDIR
 10
0.0
 20
1.0
 30
0.0
  9
$USERI1
 70
     0
  9
$USERI2
 70
     0
  9
$USERI3
 70
     0
  9
$USERI4
 70
     0
  9
$USERI5
 70
     0
  9
$USERR1
 40
0.0
  9
$USERR2
 40
0.0
  9
$USERR3
 40
0.0
  9
$USERR4
 40
0.0
  9
$USERR5
 40
0.0
  9
$WORLDVIEW
 70
     1
  9
$SHADEDGE
 70
     3
  9
$SHADEDIF
 70
    70
  9
$TILEMODE
 70
     1
  9
$MAXACTVP
 70
    64
  9
$PINSBASE
 10
0.0
 20
0.0
 30
0.0
  9
$PLIMCHECK
 70
     0
  9
$PEXTMIN
 10
1.000000000000000E+20
 20
1.000000000000000E+20
 30
1.000000000000000E+20
  9
$PEXTMAX
 10
-1.000000000000000E+20
 20
-1.000000000000000E+20
 30
-1.000000000000000E+20
  9
$PLIMMIN
 10
0.0
 20
0.0
  9
$PLIMMAX
 10
12.0
 20
9.0
  9
$UNITMODE
 70
     0
  9
$VISRETAIN
 70
     1
  9
$PLINEGEN
 70
     0
  9
$PSLTSCALE
 70
     1
  9
$TREEDEPTH
 70
  3020
  9
$PICKSTYLE
 70
     1
  9
$CMLSTYLE
  2
STANDARD
  9
$CMLJUST
 70
     0
  9
$CMLSCALE
 40
1.0
  9
$PROXYGRAPHICS
 70
     1
  9
$MEASUREMENT
 70
     0
  0
ENDSEC
  0
SECTION
  2
CLASSES
  0
CLASS
  1
ACDBDICTIONARYWDFLT
  2
AcDbDictionaryWithDefault
  3
ObjectDBX Classes
 90
        0
280
     0
281
     0
  0
CLASS
  1
VISUALSTYLE
  2
AcDbVisualStyle
  3
ObjectDBX Classes
 90
     4095
280
     0
281
     0
  0
CLASS
  1
MATERIAL
  2
AcDbMaterial
  3
ObjectDBX Classes
 90
     1153
280
     0
281
     0
  0
CLASS
  1
SCALE
  2
AcDbScale
  3
ObjectDBX Classes
 90
     1153
280
     0
281
     0
  0
CLASS
  1
TABLESTYLE
  2
AcDbTableStyle
  3
ObjectDBX Classes
 90
     4095
280
     0
281
     0
  0
CLASS
  1
MLEADERSTYLE
  2
AcDbMLeaderStyle
  3
ACDB_MLEADERSTYLE_CLASS
 90
     4095
280
     0
281
     0
  0
CLASS
  1
SUN
  2
AcDbSun
  3
SCENEOE
 90
     1153
280
     0
281
     0
  0
CLASS
  1
DICTIONARYVAR
  2
AcDbDictionaryVar
  3
ObjectDBX Classes
 90
        0
280
     0
281
     0
  0
CLASS
  1
FIELD
  2
AcDbField
  3
ObjectDBX Classes
 90
     1152
280
     0
281
     0
  0
CLASS
  1
FIELDLIST
  2
AcDbFieldList
  3
ObjectDBX Classes
 90
     1152
280
     0
281
     0
  0
CLASS
  1
DIMASSOC
  2
AcDbDimAssoc
  3
"AcDbDimAssoc|Product Desc:     AcDim ARX App For Dimension|Company:          Autodesk, Inc.|WEB Address:      www.autodesk.com"
 90
        0
280
     0
281
     0
  0
CLASS
  1
BREAKDATA
  2
AcDbBreakData
  3
ObjectDBX Classes
 90
     1024
280
     0
281
     0
  0
CLASS
  1
XRECORD
  2
AcDbXrecord
  3
ObjectDBX Classes
 90
        0
280
     0
281
     0
  0
CLASS
  1
LWPOLYLINE
  2
AcDbPolyline
  3
ObjectDBX Classes
 90
        0
280
     0
281
     1
  0
CLASS
  1
HATCH
  2
AcDbHatch
  3
ObjectDBX Classes
 90
        0
280
     0
281
     1
  0
CLASS
  1
ACDBPLACEHOLDER
  2
AcDbPlaceHolder
  3
ObjectDBX Classes
 90
        0
280
     0
281
     0
  0
CLASS
  1
LAYOUT
  2
AcDbLayout
  3
ObjectDBX Classes
 90
        0
280
     0
281
     0
  0
ENDSEC
  0
SECTION
  2
TABLES
  0
TABLE
  2
VPORT
  5
8
102
{ACAD_XDICTIONARY
360
252
102
}
330
0
100
AcDbSymbolTable
 70
     1
  0
VPORT
  5
29
330
8
100
AcDbSymbolTableRecord
100
AcDbViewportTableRecord
  2
*ACTIVE
 70
     0
 10
0.0
 20
0.0
 11
1.0
 21
1.0
 12
159.194944
 22
105.0
 13
0.0
 23
0.0
 14
0.5
 24
0.5
 15
0.5
 25
0.5
 16
0.0
 26
0.0
 36
1.0
 17
0.0
 27
0.0
 37
0.0
 40
193.8
 41
1.465209936842105
 42
50.0
 43
0.0
 44
0.0
 50
0.0
 51
0.0
 71
     0
 72
   100
 73
     1
 74
     3
 75
     0
 76
     0
 77
     0
 78
     0
  0
ENDTAB
  0
TABLE
  2
LTYPE
  5
5
330
0
100
AcDbSymbolTable
 70
     1
  0
LTYPE
  5
14
330
5
100
AcDbSymbolTableRecord
100
AcDbLinetypeTableRecord
  2
BYBLOCK
 70
     0
  3

 72
    65
 73
     0
 40
0.0
  0
LTYPE
  5
15
330
5
100
AcDbSymbolTableRecord
100
AcDbLinetypeTableRecord
  2
BYLAYER
 70
     0
  3

 72
    65
 73
     0
 40
0.0
  0
LTYPE
  5
16
330
5
100
AcDbSymbolTableRecord
100
AcDbLinetypeTableRecord
  2
CONTINUOUS
 70
     0
  3
Solid line
 72
    65
 73
     0
 40
0.0
  0
ENDTAB
  0
TABLE
  2
LAYER
  5
2
330
0
100
AcDbSymbolTable
 70
     7
  0
LAYER
  5
10
330
2
100
AcDbSymbolTableRecord
100
AcDbLayerTableRecord
  2
0
 70
     0
 62
     7
  6
CONTINUOUS
  0
LAYER
  5
70
330
2
100
AcDbSymbolTableRecord
100
AcDbLayerTableRecord
  2
DEFPOINTS
 70
     0
 62
     7
  6
CONTINUOUS
  0
LAYER
  5
74
330
2
100
AcDbSymbolTableRecord
100
AcDbLayerTableRecord
  2
MODELSKETCH_VISIBLE
 70
     0
 62
     7
  6
CONTINUOUS
  0
LAYER
  5
76
330
2
100
AcDbSymbolTableRecord
100
AcDbLayerTableRecord
  2
MODELSKETCH_POINT
 70
     0
 62
     7
  6
CONTINUOUS
  0
LAYER
  5
89
330
2
100
AcDbSymbolTableRecord
100
AcDbLayerTableRecord
  2
BORDER_FRAME
 70
     0
 62
     7
  6
CONTINUOUS
  0
LAYER
  5
8F
330
2
100
AcDbSymbolTableRecord
100
AcDbLayerTableRecord
  2
TITLE_BLOCK
 70
     0
 62
     7
  6
CONTINUOUS
  0
LAYER
  5
106
330
2
100
AcDbSymbolTableRecord
100
AcDbLayerTableRecord
  2
ANNOTATION_TEXT
 70
     0
 62
     7
  6
CONTINUOUS
  0
ENDTAB
  0
TABLE
  2
STYLE
  5
3
330
0
100
AcDbSymbolTable
 70
    36
  0
STYLE
  5
11
330
3
100
AcDbSymbolTableRecord
100
AcDbTextStyleTableRecord
  2
STANDARD
 70
     0
 40
0.0
 41
1.0
 50
0.0
 71
     0
 42
3.5
  3
txt
  4

  0
STYLE
  5
71
330
3
100
AcDbSymbolTableRecord
100
AcDbTextStyleTableRecord
  2
ONSHAPE-STANDARD
 70
     0
 40
0.0
 41
1.0
 50
0.0
 71
     0
 42
3.5
  3
NotoSans-Regular.ttf
  4

1001
ACAD
1000
Noto Sans
1071
        0
  0
STYLE
  5
73
330
3
100
AcDbSymbolTableRecord
100
AcDbTextStyleTableRecord
  2
ONSHAPE-STANDARD-DIMENSION
 70
     0
 40
0.0
 41
1.0
 50
0.0
 71
     0
 42
3.5
  3

  4

1001
ACAD
1000
Noto Sans
1071
        0
  0
STYLE
  5
C1
330
3
100
AcDbSymbolTableRecord
100
AcDbTextStyleTableRecord
  2
ONSHAPE-STANDARD-FIELDS
 70
     0
 40
0.0
 41
1.0
 50
0.0
 71
     0
 42
3.5
  3

  4

1001
ACAD
1000
Noto Sans
1071
        0
  0
STYLE
  5
108
330
3
100
AcDbSymbolTableRecord
100
AcDbTextStyleTableRecord
  2
ONSHAPE-STANDARD-VIEW-LABE
 70
     0
 40
3.5
 41
1.0
 50
0.0
 71
     0
 42
3.5
  3
NotoSans-Regular.ttf
  4

1001
ACAD
1000
Noto Sans
1071
        0
  0
STYLE
  5
1B3
330
3
100
AcDbSymbolTableRecord
100
AcDbTextStyleTableRecord
  2
ONSHAPE-STANDARD-NOTESTYLE
 70
     0
 40
3.5
 41
1.0
 50
0.0
 71
     0
 42
3.5
  3
NotoSans-Regular.ttf
  4

1001
ACAD
1000
Noto Sans
1071
        0
  0
STYLE
  5
1C4
330
3
100
AcDbSymbolTableRecord
100
AcDbTextStyleTableRecord
  2
ONSHAPE-STANDARD-TCFIELDS
 70
     0
 40
0.0
 41
1.0
 50
0.0
 71
     0
 42
3.5
  3
NotoSansTC-Regular.otf
  4

1001
ACAD
1000
Noto Sans TC
1071
        0
  0
STYLE
  5
1C5
330
3
100
AcDbSymbolTableRecord
100
AcDbTextStyleTableRecord
  2
ONSHAPE-STANDARD-SCFIELDS
 70
     0
 40
0.0
 41
1.0
 50
0.0
 71
     0
 42
3.5
  3
NotoSansSC-Regular.otf
  4

1001
ACAD
1000
Noto Sans SC
1071
        0
  0
STYLE
  5
1C6
330
3
100
AcDbSymbolTableRecord
100
AcDbTextStyleTableRecord
  2
ONSHAPE-STANDARD-KOREANFIE
 70
     0
 40
0.0
 41
1.0
 50
0.0
 71
     0
 42
3.5
  3
NotoSansKR-Regular.otf
  4

1001
ACAD
1000
Noto Sans KR
1071
        0
  0
STYLE
  5
1C7
330
3
100
AcDbSymbolTableRecord
100
AcDbTextStyleTableRecord
  2
ONSHAPE-STANDARD-JAPANESEF
 70
     0
 40
0.0
 41
1.0
 50
0.0
 71
     0
 42
3.5
  3
NotoSansJP-Regular.otf
  4

1001
ACAD
1000
Noto Sans JP
1071
        0
  0
STYLE
  5
1C9
330
3
100
AcDbSymbolTableRecord
100
AcDbTextStyleTableRecord
  2
ONSHAPE-STANDARD-BOLD
 70
     0
 40
0.0
 41
1.0
 50
0.0
 71
     0
 42
3.5
  3
NotoSans-Bold.ttf
  4

1001
ACAD
1000
Noto Sans
1071
 33554432
  0
STYLE
  5
1CC
330
3
100
AcDbSymbolTableRecord
100
AcDbTextStyleTableRecord
  2
TTFSTYLE
 70
     0
 40
0.0
 41
1.0
 50
0.0
 71
     0
 42
3.5
  3

  4

1001
ACAD
1000
Verdana
1071
       34
  0
STYLE
  5
1CD
330
3
100
AcDbSymbolTableRecord
100
AcDbTextStyleTableRecord
  2
ONSHAPE-STANDARD-GTOLERANC
 70
     0
 40
0.0
 41
1.0
 50
0.0
 71
     0
 42
3.5
  3

  4

1001
ACAD
1000
Noto Sans
1071
        0
  0
STYLE
  5
1CE
330
3
100
AcDbSymbolTableRecord
100
AcDbTextStyleTableRecord
  2
ONSHAPE-STANDARD-TABLE-DAT
 70
     0
 40
0.0
 41
1.0
 50
0.0
 71
     0
 42
3.5
  3
NotoSans-Regular.ttf
  4

1001
ACAD
1000
Noto Sans
1071
        0
  0
STYLE
  5
1CF
330
3
100
AcDbSymbolTableRecord
100
AcDbTextStyleTableRecord
  2
ONSHAPE-STANDARD-TABLE-TIT
 70
     0
 40
0.0
 41
1.0
 50
0.0
 71
     0
 42
3.5
  3
NotoSans-Bold.ttf
  4

1001
ACAD
1000
Noto Sans
1071
 33554432
  0
STYLE
  5
1D0
330
3
100
AcDbSymbolTableRecord
100
AcDbTextStyleTableRecord
  2
ONSHAPE-STANDARD-TABLE-HEA
 70
     0
 40
0.0
 41
1.0
 50
0.0
 71
     0
 42
3.5
  3
NotoSans-Bold.ttf
  4

1001
ACAD
1000
Noto Sans
1071
 33554432
  0
STYLE
  5
1D1
330
3
100
AcDbSymbolTableRecord
100
AcDbTextStyleTableRecord
  2
ONSHAPE-STANDARD-BOMTABLE-
 70
     0
 40
0.0
 41
1.0
 50
0.0
 71
     0
 42
3.5
  3
NotoSans-Regular.ttf
  4

1001
ACAD
1000
Noto Sans
1071
        0
  0
STYLE
  5
1D2
330
3
100
AcDbSymbolTableRecord
100
AcDbTextStyleTableRecord
  2
ONSHAPE-STANDARD-BOMTABLE0
 70
     0
 40
0.0
 41
1.0
 50
0.0
 71
     0
 42
3.5
  3
NotoSans-Bold.ttf
  4

1001
ACAD
1000
Noto Sans
1071
 33554432
  0
STYLE
  5
1D3
330
3
100
AcDbSymbolTableRecord
100
AcDbTextStyleTableRecord
  2
ONSHAPE-STANDARD-BOMTABLE1
 70
     0
 40
0.0
 41
1.0
 50
0.0
 71
     0
 42
3.5
  3
NotoSans-Bold.ttf
  4

1001
ACAD
1000
Noto Sans
1071
 33554432
  0
STYLE
  5
1D5
330
3
100
AcDbSymbolTableRecord
100
AcDbTextStyleTableRecord
  2
ONSHAPE-STANDARD-DATUM-DIM
 70
     0
 40
3.5
 41
1.0
 50
0.0
 71
     0
 42
3.5
  3
NotoSans-Regular.ttf
  4

1001
ACAD
1000
Noto Sans
1071
        0
  0
STYLE
  5
1D7
330
3
100
AcDbSymbolTableRecord
100
AcDbTextStyleTableRecord
  2
ONSHAPE-DETAIL-VIEW-LEADER
 70
     0
 40
3.5
 41
1.0
 50
0.0
 71
     0
 42
3.5
  3
NotoSans-Regular.ttf
  4

1001
ACAD
1000
Noto Sans
1071
        0
  0
STYLE
  5
1D8
330
3
100
AcDbSymbolTableRecord
100
AcDbTextStyleTableRecord
  2
ONSHAPE-STANDARD-HOLE-CALL
 70
     0
 40
3.5
 41
1.0
 50
0.0
 71
     0
 42
3.5
  3
NotoSans-Regular.ttf
  4

1001
ACAD
1000
Noto Sans
1071
        0
  0
STYLE
  5
1D9
330
3
100
AcDbSymbolTableRecord
100
AcDbTextStyleTableRecord
  2
ONSHAPE-STANDARD-HOLETABLE
 70
     0
 40
0.0
 41
1.0
 50
0.0
 71
     0
 42
3.5
  3
NotoSans-Regular.ttf
  4

1001
ACAD
1000
Noto Sans
1071
        0
  0
STYLE
  5
1DA
330
3
100
AcDbSymbolTableRecord
100
AcDbTextStyleTableRecord
  2
ONSHAPE-STANDARD-HOLETABL0
 70
     0
 40
0.0
 41
1.0
 50
0.0
 71
     0
 42
3.5
  3
NotoSans-Bold.ttf
  4

1001
ACAD
1000
Noto Sans
1071
 33554432
  0
STYLE
  5
1DB
330
3
100
AcDbSymbolTableRecord
100
AcDbTextStyleTableRecord
  2
ONSHAPE-STANDARD-HOLETABL1
 70
     0
 40
0.0
 41
1.0
 50
0.0
 71
     0
 42
3.5
  3
NotoSans-Bold.ttf
  4

1001
ACAD
1000
Noto Sans
1071
 33554432
  0
STYLE
  5
1DC
330
3
100
AcDbSymbolTableRecord
100
AcDbTextStyleTableRecord
  2
ONSHAPE-STANDARD-HOLE-TAG
 70
     0
 40
3.5
 41
1.0
 50
0.0
 71
     0
 42
3.5
  3
NotoSans-Regular.ttf
  4

1001
ACAD
1000
Noto Sans
1071
        0
  0
STYLE
  5
1DD
330
3
100
AcDbSymbolTableRecord
100
AcDbTextStyleTableRecord
  2
ONSHAPE-STANDARD-REVISIONT
 70
     0
 40
0.0
 41
1.0
 50
0.0
 71
     0
 42
3.5
  3
NotoSans-Regular.ttf
  4

1001
ACAD
1000
Noto Sans
1071
        0
  0
STYLE
  5
1DE
330
3
100
AcDbSymbolTableRecord
100
AcDbTextStyleTableRecord
  2
ONSHAPE-STANDARD-REVISION0
 70
     0
 40
0.0
 41
1.0
 50
0.0
 71
     0
 42
3.5
  3
NotoSans-Bold.ttf
  4

1001
ACAD
1000
Noto Sans
1071
 33554432
  0
STYLE
  5
1DF
330
3
100
AcDbSymbolTableRecord
100
AcDbTextStyleTableRecord
  2
ONSHAPE-STANDARD-REVISION1
 70
     0
 40
0.0
 41
1.0
 50
0.0
 71
     0
 42
3.5
  3
NotoSans-Bold.ttf
  4

1001
ACAD
1000
Noto Sans
1071
 33554432
  0
STYLE
  5
1E0
330
3
100
AcDbSymbolTableRecord
100
AcDbTextStyleTableRecord
  2
ONSHAPE-STANDARD-REVISION-
 70
     0
 40
3.5
 41
1.0
 50
0.0
 71
     0
 42
3.5
  3
NotoSans-Regular.ttf
  4

1001
ACAD
1000
Noto Sans
1071
        0
  0
STYLE
  5
1E1
330
3
100
AcDbSymbolTableRecord
100
AcDbTextStyleTableRecord
  2
ONSHAPE-STANDARD-CUTLISTTA
 70
     0
 40
0.0
 41
1.0
 50
0.0
 71
     0
 42
3.5
  3
NotoSans-Regular.ttf
  4

1001
ACAD
1000
Noto Sans
1071
        0
  0
STYLE
  5
1E2
330
3
100
AcDbSymbolTableRecord
100
AcDbTextStyleTableRecord
  2
ONSHAPE-STANDARD-CUTLISTT0
 70
     0
 40
0.0
 41
1.0
 50
0.0
 71
     0
 42
3.5
  3
NotoSans-Bold.ttf
  4

1001
ACAD
1000
Noto Sans
1071
 33554432
  0
STYLE
  5
1E3
330
3
100
AcDbSymbolTableRecord
100
AcDbTextStyleTableRecord
  2
ONSHAPE-STANDARD-CUTLISTT1
 70
     0
 40
0.0
 41
1.0
 50
0.0
 71
     0
 42
3.5
  3
NotoSans-Bold.ttf
  4

1001
ACAD
1000
Noto Sans
1071
 33554432
  0
STYLE
  5
1E4
330
3
100
AcDbSymbolTableRecord
100
AcDbTextStyleTableRecord
  2
ONSHAPE-STANDARD-CUSTOMTAB
 70
     0
 40
0.0
 41
1.0
 50
0.0
 71
     0
 42
3.5
  3
NotoSans-Regular.ttf
  4

1001
ACAD
1000
Noto Sans
1071
        0
  0
STYLE
  5
1E5
330
3
100
AcDbSymbolTableRecord
100
AcDbTextStyleTableRecord
  2
ONSHAPE-STANDARD-CUSTOMTA0
 70
     0
 40
0.0
 41
1.0
 50
0.0
 71
     0
 42
3.5
  3
NotoSans-Bold.ttf
  4

1001
ACAD
1000
Noto Sans
1071
 33554432
  0
STYLE
  5
1E6
330
3
100
AcDbSymbolTableRecord
100
AcDbTextStyleTableRecord
  2
ONSHAPE-STANDARD-CUSTOMTA1
 70
     0
 40
0.0
 41
1.0
 50
0.0
 71
     0
 42
3.5
  3
NotoSans-Bold.ttf
  4

1001
ACAD
1000
Noto Sans
1071
 33554432
  0
ENDTAB
  0
TABLE
  2
VIEW
  5
6
330
0
100
AcDbSymbolTable
 70
     0
  0
ENDTAB
  0
TABLE
  2
UCS
  5
7
330
0
100
AcDbSymbolTable
 70
     0
  0
ENDTAB
  0
TABLE
  2
APPID
  5
9
330
0
100
AcDbSymbolTable
 70
     8
  0
APPID
  5
12
330
9
100
AcDbSymbolTableRecord
100
AcDbRegAppTableRecord
  2
ACAD
 70
     0
  0
APPID
  5
C2
330
9
100
AcDbSymbolTableRecord
100
AcDbRegAppTableRecord
  2
ONSHAPE_NOTES_REORDERING_D
 70
     0
  0
APPID
  5
C3
330
9
100
AcDbSymbolTableRecord
100
AcDbRegAppTableRecord
  2
ONSHAPE_NOTES_ANNOTATION_D
 70
     0
  0
APPID
  5
123
330
9
100
AcDbSymbolTableRecord
100
AcDbRegAppTableRecord
  2
ACAD_DIMASSOC_CALC_DIMLFAC
 70
     0
  0
APPID
  5
124
330
9
100
AcDbSymbolTableRecord
100
AcDbRegAppTableRecord
  2
ACAD_DIMASSOC_DIMLFAC
 70
     0
  0
APPID
  5
125
330
9
100
AcDbSymbolTableRecord
100
AcDbRegAppTableRecord
  2
ACAD_DIMASSOC_OVERRIDDEN_D
 70
     0
  0
APPID
  5
118
330
9
100
AcDbSymbolTableRecord
100
AcDbRegAppTableRecord
  2
INDEX
 70
     0
  0
APPID
  5
25C
330
9
100
AcDbSymbolTableRecord
100
AcDbRegAppTableRecord
  2
ACAD_MLEADERVER
 70
     0
  0
ENDTAB
  0
TABLE
  2
DIMSTYLE
  5
A
330
0
100
AcDbSymbolTable
 70
    23
  0
DIMSTYLE
105
27
330
A
100
AcDbSymbolTableRecord
100
AcDbDimStyleTableRecord
  2
STANDARD
 70
     0
  3

  4

  5

  6

  7

 40
1.0
 41
0.18
 42
0.0625
 43
0.38
 44
0.18
 45
0.0
 46
0.0
 47
0.0
 48
0.0
140
0.18
141
0.09
142
0.0
143
25.4
144
1.0
145
0.0
146
1.0
147
0.09
 71
     0
 72
     0
 73
     1
 74
     1
 75
     0
 76
     0
 77
     0
 78
     0
170
     0
171
     2
172
     0
173
     0
174
     0
175
     0
176
     0
177
     0
178
     0
270
     2
271
     4
272
     4
273
     2
274
     2
340
11
275
     0
280
     0
281
     0
282
     0
283
     1
284
     0
285
     0
286
     0
287
     3
288
     0
  0
DIMSTYLE
105
72
330
A
100
AcDbSymbolTableRecord
100
AcDbDimStyleTableRecord
  2
ONSHAPE-ISO-25
 70
     0
  3

  4

  5

  6

  7

 40
1.0
 41
2.5
 42
0.625
 43
3.75
 44
1.25
 45
0.0
 46
0.0
 47
0.0
 48
0.0
140
3.5
141
2.5
142
0.0
143
0.03937
144
1.0
145
0.0
146
1.0
147
0.625
 71
     0
 72
     0
 73
     0
 74
     0
 75
     0
 76
     0
 77
     1
 78
     8
170
     0
171
     3
172
     1
173
     0
174
     0
175
     0
176
     7
177
     7
178
     7
179
     1
270
     2
271
     2
272
     2
273
     2
274
     3
340
73
275
     0
280
     0
281
     0
282
     0
283
     0
284
     8
285
     8
286
     0
287
     3
288
     1
  0
DIMSTYLE
105
113
102
{ACAD_REACTORS
330
10A
330
126
330
139
330
14C
330
15F
330
172
330
185
330
198
102
}
330
A
100
AcDbSymbolTableRecord
100
AcDbDimStyleTableRecord
  2
ONSHAPE-ISO-25$0
 70
     0
  3

  4

  5

  6

  7

 40
1.0
 41
2.5
 42
0.625
 43
3.75
 44
1.25
 45
0.0
 46
0.0
 47
0.0
 48
0.0
140
3.5
141
2.5
142
0.0
143
0.03937
144
1.0
145
0.0
146
1.0
147
0.625
 71
     0
 72
     0
 73
     0
 74
     0
 75
     0
 76
     0
 77
     1
 78
     8
170
     0
171
     3
172
     1
173
     0
174
     0
175
     0
176
     7
177
     7
178
     7
179
     1
270
     2
271
     2
272
     2
273
     2
274
     3
340
73
275
     0
280
     0
281
     0
282
     0
283
     0
284
     8
285
     8
286
     0
287
     3
288
     1
  0
DIMSTYLE
105
1E7
330
A
100
AcDbSymbolTableRecord
100
AcDbDimStyleTableRecord
  2
ISO-25
 70
     0
  3

  4

  5

  6

  7

 40
1.0
 41
2.5
 42
0.625
 43
3.75
 44
1.25
 45
0.0
 46
0.0
 47
0.0
 48
0.0
140
2.5
141
2.5
142
0.0
143
0.03937007874016
144
1.0
145
0.0
146
1.0
147
0.625
 71
     0
 72
     0
 73
     0
 74
     0
 75
     0
 76
     0
 77
     1
 78
     8
170
     0
171
     3
172
     1
173
     0
174
     0
175
     0
176
     7
177
     7
178
     7
270
     2
271
     2
272
     2
273
     2
274
     3
340
11
275
     0
280
     0
281
     0
282
     0
283
     0
284
     8
285
     0
286
     0
287
     3
288
     1
  0
DIMSTYLE
105
1E9
330
A
100
AcDbSymbolTableRecord
100
AcDbDimStyleTableRecord
  2
ISO
 70
     0
  3

  4
"
  5

  6

  7

 40
1.0
 41
3.5
 42
1.0
 43
10.0
 44
1.0
 45
0.0
 46
0.0
 47
0.1
 48
0.1
140
3.5
141
0.0
142
0.0
143
0.03937
144
1.0
145
0.0
146
0.71
147
1.5
 71
     0
 72
     0
 73
     0
 74
     0
 75
     0
 76
     0
 77
     1
 78
     8
170
     0
171
     3
172
     1
173
     0
174
     0
175
     0
176
     7
177
     7
178
     7
270
     2
271
     2
272
     3
273
     2
274
     3
340
11
275
     0
280
     0
281
     0
282
     0
283
     0
284
     8
285
     8
286
     0
287
     3
288
     1
  0
DIMSTYLE
105
1EA
330
A
100
AcDbSymbolTableRecord
100
AcDbDimStyleTableRecord
  2
ISO$3
 70
     0
  3

  4
"
  5

  6

  7

 40
1.0
 41
3.5
 42
1.0
 43
10.0
 44
1.0
 45
0.0
 46
0.0
 47
0.1
 48
0.1
140
3.5
141
0.0
142
0.0
143
0.03937
144
1.0
145
0.0
146
0.71
147
1.5
 71
     0
 72
     0
 73
     0
 74
     1
 75
     0
 76
     0
 77
     1
 78
     8
170
     0
171
     3
172
     0
173
     0
174
     0
175
     0
176
     7
177
     7
178
     7
270
     2
271
     2
272
     3
273
     2
274
     3
340
11
275
     0
280
     0
281
     0
282
     0
283
     0
284
     8
285
     8
286
     0
288
     1
  0
DIMSTYLE
105
1EB
330
A
100
AcDbSymbolTableRecord
100
AcDbDimStyleTableRecord
  2
ISO$4
 70
     0
  3

  4
"
  5

  6

  7

 40
1.0
 41
3.5
 42
1.0
 43
10.0
 44
1.0
 45
0.0
 46
0.0
 47
0.1
 48
0.1
140
3.5
141
0.0
142
0.0
143
0.03937
144
1.0
145
0.0
146
0.71
147
1.5
 71
     0
 72
     0
 73
     0
 74
     0
 75
     0
 76
     0
 77
     1
 78
     8
170
     0
171
     3
172
     1
173
     0
174
     0
175
     0
176
     7
177
     7
178
     7
270
     2
271
     2
272
     3
273
     2
274
     3
340
11
275
     0
280
     0
281
     0
282
     0
283
     0
284
     8
285
     8
286
     0
287
     3
288
     1
  0
DIMSTYLE
105
1EC
330
A
100
AcDbSymbolTableRecord
100
AcDbDimStyleTableRecord
  2
ISO$6
 70
     0
  3

  4
"
  5

  6

  7

 40
1.0
 41
0.5
 42
1.0
 43
10.0
 44
1.0
 45
0.0
 46
0.0
 47
0.1
 48
0.1
140
3.5
141
0.0
142
0.0
143
0.03937
144
1.0
145
0.0
146
0.71
147
1.5
 71
     0
 72
     0
 73
     0
 74
     0
 75
     0
 76
     0
 77
     0
 78
     8
170
     0
171
     3
172
     1
173
     0
174
     0
175
     0
176
     7
177
     7
178
     7
270
     2
271
     2
272
     3
273
     2
274
     3
340
11
275
     0
280
     0
281
     0
282
     0
283
     0
284
     8
285
     8
286
     0
287
     3
288
     1
  0
DIMSTYLE
105
1ED
330
A
100
AcDbSymbolTableRecord
100
AcDbDimStyleTableRecord
  2
ISO$7
 70
     0
  3

  4
"
  5

  6

  7

 40
1.0
 41
3.5
 42
1.0
 43
10.0
 44
1.0
 45
0.0
 46
0.0
 47
0.1
 48
0.1
140
3.5
141
0.0
142
0.0
143
0.03937
144
1.0
145
0.0
146
0.71
147
1.5
 71
     0
 72
     0
 73
     0
 74
     0
 75
     0
 76
     0
 77
     1
 78
     8
170
     0
171
     3
172
     1
173
     0
174
     0
175
     0
176
     7
177
     7
178
     7
270
     2
271
     2
272
     3
273
     2
274
     3
340
11
275
     0
280
     0
281
     0
282
     0
283
     0
284
     8
285
     8
286
     0
287
     3
288
     1
  0
DIMSTYLE
105
1EE
330
A
100
AcDbSymbolTableRecord
100
AcDbDimStyleTableRecord
  2
ISO$SF
 70
     0
  3

  4
"
  5

  6

  7

 40
1.0
 41
3.5
 42
1.0
 43
10.0
 44
1.0
 45
0.0
 46
0.0
 47
0.1
 48
0.1
140
3.5
141
0.0
142
0.0
143
0.03937
144
1.0
145
0.0
146
0.71
147
1.5
 71
     0
 72
     0
 73
     0
 74
     0
 75
     1
 76
     1
 77
     1
 78
     8
170
     0
171
     3
172
     1
173
     0
174
     0
175
     0
176
     7
177
     7
178
     7
270
     2
271
     2
272
     3
273
     2
274
     3
340
11
275
     0
280
     0
281
     0
282
     0
283
     0
284
     8
285
     8
286
     0
287
     3
288
     1
  0
DIMSTYLE
105
1EF
330
A
100
AcDbSymbolTableRecord
100
AcDbDimStyleTableRecord
  2
ISO$SH
 70
     0
  3

  4
"
  5

  6

  7

 40
1.0
 41
3.5
 42
1.0
 43
10.0
 44
1.0
 45
0.0
 46
0.0
 47
0.1
 48
0.1
140
3.5
141
0.0
142
0.0
143
0.03937
144
2.0
145
0.0
146
0.71
147
1.5
 71
     0
 72
     0
 73
     0
 74
     0
 75
     1
 76
     1
 77
     1
 78
     8
170
     0
171
     3
172
     1
173
     1
174
     0
175
     0
176
     7
177
     7
178
     7
270
     2
271
     2
272
     3
273
     2
274
     3
340
11
275
     0
280
     0
281
     0
282
     0
283
     0
284
     8
285
     8
286
     0
287
     3
288
     1
  0
DIMSTYLE
105
1F3
330
A
100
AcDbSymbolTableRecord
100
AcDbDimStyleTableRecord
  2
ONSHAPE-ISO-25$2
 70
     0
  3

  4

  5

  6

  7

 40
1.0
 41
2.5
 42
0.625
 43
3.75
 44
1.25
 45
0.0
 46
0.0
 47
0.0
 48
0.0
140
3.5
141
2.5
142
0.0
143
0.03937
144
1.0
145
0.0
146
1.0
147
0.625
 71
     0
 72
     0
 73
     0
 74
     0
 75
     0
 76
     0
 77
     1
 78
     8
170
     0
171
     3
172
     1
173
     0
174
     0
175
     0
176
     7
177
     7
178
     7
179
     1
270
     2
271
     2
272
     2
273
     2
274
     3
340
73
275
     0
280
     0
281
     0
282
     0
283
     0
284
     8
285
     8
286
     0
287
     3
288
     1
  0
DIMSTYLE
105
1F4
330
A
100
AcDbSymbolTableRecord
100
AcDbDimStyleTableRecord
  2
ONSHAPE-ISO-25$3
 70
     0
  3

  4

  5

  6

  7

 40
1.0
 41
2.5
 42
0.625
 43
3.75
 44
1.25
 45
0.0
 46
0.0
 47
0.0
 48
0.0
140
3.5
141
0.0
142
0.0
143
0.03937
144
1.0
145
0.0
146
1.0
147
0.625
 71
     0
 72
     0
 73
     0
 74
     0
 75
     0
 76
     0
 77
     1
 78
     8
170
     0
171
     3
172
     1
173
     0
174
     0
175
     0
176
     7
177
     7
178
     7
179
     1
270
     2
271
     2
272
     2
273
     2
274
     3
340
73
275
     0
280
     0
281
     0
282
     0
283
     0
284
     8
285
     8
286
     0
287
     3
288
     1
  0
DIMSTYLE
105
1F5
330
A
100
AcDbSymbolTableRecord
100
AcDbDimStyleTableRecord
  2
ONSHAPE-ISO-25$4
 70
     0
  3

  4

  5

  6

  7

 40
1.0
 41
2.5
 42
0.625
 43
3.75
 44
1.25
 45
0.0
 46
0.0
 47
0.0
 48
0.0
140
3.5
141
0.0
142
0.0
143
0.03937
144
1.0
145
0.0
146
1.0
147
0.625
 71
     0
 72
     0
 73
     0
 74
     0
 75
     0
 76
     0
 77
     1
 78
     8
170
     0
171
     3
172
     1
173
     0
174
     0
175
     0
176
     7
177
     7
178
     7
179
     1
270
     2
271
     2
272
     2
273
     2
274
     3
340
73
275
     0
280
     0
281
     0
282
     0
283
     0
284
     8
285
     8
286
     0
287
     3
288
     1
  0
DIMSTYLE
105
1F6
330
A
100
AcDbSymbolTableRecord
100
AcDbDimStyleTableRecord
  2
ONSHAPE-ISO-25$6
 70
     0
  3

  4

  5

  6

  7

 40
1.0
 41
0.5
 42
0.625
 43
3.75
 44
1.25
 45
0.0
 46
0.0
 47
0.0
 48
0.0
140
3.5
141
2.5
142
0.0
143
0.03937
144
1.0
145
0.0
146
1.0
147
0.625
 71
     0
 72
     0
 73
     0
 74
     0
 75
     0
 76
     0
 77
     1
 78
     8
170
     0
171
     3
172
     1
173
     0
174
     0
175
     0
176
     7
177
     7
178
     7
179
     1
270
     2
271
     2
272
     2
273
     2
274
     3
340
73
275
     0
280
     0
281
     0
282
     0
283
     0
284
     8
285
     8
286
     0
287
     3
288
     1
  0
DIMSTYLE
105
1F7
330
A
100
AcDbSymbolTableRecord
100
AcDbDimStyleTableRecord
  2
ONSHAPE-ISO-25$7
 70
     0
  3

  4

  5

  6

  7

 40
1.0
 41
2.5
 42
0.625
 43
3.75
 44
1.25
 45
0.0
 46
0.0
 47
0.0
 48
0.0
140
3.5
141
2.5
142
0.0
143
0.03937
144
1.0
145
0.0
146
1.0
147
0.625
 71
     0
 72
     0
 73
     0
 74
     0
 75
     0
 76
     0
 77
     1
 78
     8
170
     0
171
     3
172
     1
173
     0
174
     0
175
     0
176
     7
177
     7
178
     7
179
     1
270
     2
271
     2
272
     2
273
     2
274
     3
340
73
275
     0
280
     0
281
     0
282
     0
283
     0
284
     8
285
     8
286
     0
287
     3
288
     1
  0
DIMSTYLE
105
1F8
330
A
100
AcDbSymbolTableRecord
100
AcDbDimStyleTableRecord
  2
ONSHAPE-STANDARD-GTOLERANC
 70
     0
  3

  4

  5

  6

  7

 40
1.0
 41
2.5
 42
0.625
 43
3.75
 44
1.25
 45
0.0
 46
0.0
 47
0.0
 48
0.0
140
3.5
141
2.5
142
0.0
143
0.03937
144
1.0
145
0.0
146
1.0
147
0.625
 71
     0
 72
     0
 73
     0
 74
     0
 75
     0
 76
     0
 77
     1
 78
     8
170
     0
171
     3
172
     1
173
     0
174
     0
175
     0
176
     7
177
     7
178
     7
179
     1
270
     2
271
     2
272
     2
273
     2
274
     3
340
1CD
275
     0
280
     0
281
     0
282
     0
283
     0
284
     8
285
     8
286
     0
287
     3
288
     1
  0
DIMSTYLE
105
1FA
330
A
100
AcDbSymbolTableRecord
100
AcDbDimStyleTableRecord
  2
ONSHAPE-ORDINATESTYLE
 70
     0
  3

  4

  5

  6

  7

 40
1.0
 41
2.5
 42
0.625
 43
3.75
 44
1.25
 45
0.0
 46
0.0
 47
0.0
 48
0.0
140
3.5
141
2.5
142
0.0
143
0.03937
144
1.0
145
0.0
146
1.0
147
0.625
 71
     0
 72
     0
 73
     0
 74
     0
 75
     0
 76
     0
 77
     1
 78
     8
170
     0
171
     3
172
     1
173
     0
174
     0
175
     0
176
     7
177
     7
178
     7
179
     1
270
     2
271
     2
272
     2
273
     2
274
     3
340
73
275
     0
280
     0
281
     0
282
     0
283
     0
284
     8
285
     8
286
     0
287
     3
288
     1
  0
DIMSTYLE
105
1FB
330
A
100
AcDbSymbolTableRecord
100
AcDbDimStyleTableRecord
  2
ONSHAPE-CHAMFERDIMSTYLE
 70
     0
  3

  4

  5

  6

  7

 40
1.0
 41
2.5
 42
0.625
 43
3.75
 44
1.25
 45
0.0
 46
0.0
 47
0.0
 48
0.0
140
3.5
141
2.5
142
0.0
143
0.03937
144
1.0
145
0.0
146
1.0
147
0.625
 71
     0
 72
     0
 73
     0
 74
     0
 75
     0
 76
     0
 77
     1
 78
     8
170
     0
171
     3
172
     1
173
     0
174
     0
175
     0
176
     7
177
     7
178
     7
179
     1
270
     2
271
     2
272
     2
273
     2
274
     3
340
73
275
     0
280
     0
281
     0
282
     0
283
     0
284
     8
285
     8
286
     0
287
     3
288
     1
  0
DIMSTYLE
105
1FC
330
A
100
AcDbSymbolTableRecord
100
AcDbDimStyleTableRecord
  2
ONSHAPE-SKETCHDRIVENDIMSTY
 70
     0
  3

  4

  5

  6

  7

 40
1.0
 41
2.5
 42
0.625
 43
3.75
 44
1.25
 45
0.0
 46
0.0
 47
0.0
 48
0.0
140
3.5
141
2.5
142
0.0
143
0.03937
144
1.0
145
0.0
146
1.0
147
0.625
 71
     0
 72
     0
 73
     0
 74
     0
 75
     0
 76
     0
 77
     1
 78
     8
170
     0
171
     3
172
     1
173
     0
174
     0
175
     0
176
   251
177
   251
178
   251
179
     1
270
     2
271
     2
272
     2
273
     2
274
     3
340
73
275
     0
280
     0
281
     0
282
     0
283
     0
284
     8
285
     8
286
     0
287
     3
288
     1
  0
DIMSTYLE
105
1FD
330
A
100
AcDbSymbolTableRecord
100
AcDbDimStyleTableRecord
  2
ONSHAPE-SKETCHDRIVENDIMST0
 70
     0
  3

  4

  5

  6

  7

 40
1.0
 41
2.5
 42
0.625
 43
3.75
 44
1.25
 45
0.0
 46
0.0
 47
0.0
 48
0.0
140
3.5
141
2.5
142
0.0
143
0.03937
144
1.0
145
0.0
146
1.0
147
0.625
 71
     0
 72
     0
 73
     0
 74
     0
 75
     0
 76
     0
 77
     1
 78
     8
170
     0
171
     3
172
     1
173
     0
174
     0
175
     0
176
   251
177
   251
178
   251
179
     1
270
     2
271
     2
272
     2
273
     2
274
     3
340
73
275
     0
280
     0
281
     0
282
     0
283
     0
284
     8
285
     8
286
     0
287
     3
288
     1
  0
DIMSTYLE
105
1FE
330
A
100
AcDbSymbolTableRecord
100
AcDbDimStyleTableRecord
  2
ONSHAPE-SKETCHDRIVENDIMST1
 70
     0
  3

  4

  5

  6

  7

 40
1.0
 41
2.5
 42
0.625
 43
3.75
 44
1.25
 45
0.0
 46
0.0
 47
0.0
 48
0.0
140
3.5
141
0.0
142
0.0
143
0.03937
144
1.0
145
0.0
146
1.0
147
0.625
 71
     0
 72
     0
 73
     0
 74
     0
 75
     0
 76
     0
 77
     1
 78
     8
170
     0
171
     3
172
     1
173
     0
174
     0
175
     0
176
   251
177
   251
178
   251
179
     1
270
     2
271
     2
272
     2
273
     2
274
     3
340
73
275
     0
280
     0
281
     0
282
     0
283
     0
284
     8
285
     8
286
     0
287
     3
288
     1
  0
DIMSTYLE
105
1FF
330
A
100
AcDbSymbolTableRecord
100
AcDbDimStyleTableRecord
  2
ONSHAPE-SKETCHDRIVENDIMST2
 70
     0
  3

  4

  5

  6

  7

 40
1.0
 41
2.5
 42
0.625
 43
3.75
 44
1.25
 45
0.0
 46
0.0
 47
0.0
 48
0.0
140
3.5
141
0.0
142
0.0
143
0.03937
144
1.0
145
0.0
146
1.0
147
0.625
 71
     0
 72
     0
 73
     0
 74
     0
 75
     0
 76
     0
 77
     1
 78
     8
170
     0
171
     3
172
     1
173
     0
174
     0
175
     0
176
   251
177
   251
178
   251
179
     1
270
     2
271
     2
272
     2
273
     2
274
     3
340
73
275
     0
280
     0
281
     0
282
     0
283
     0
284
     8
285
     8
286
     0
287
     3
288
     1
  0
ENDTAB
  0
TABLE
  2
BLOCK_RECORD
  5
1
330
0
100
AcDbSymbolTable
 70
     8
  0
BLOCK_RECORD
  5
1F
330
1
100
AcDbSymbolTableRecord
100
AcDbBlockTableRecord
  2
*MODEL_SPACE
  0
BLOCK_RECORD
  5
1B
330
1
100
AcDbSymbolTableRecord
100
AcDbBlockTableRecord
  2
*PAPER_SPACE
  0
BLOCK_RECORD
  5
115
330
1
100
AcDbSymbolTableRecord
100
AcDbBlockTableRecord
  2
*D1
  0
BLOCK_RECORD
  5
12C
330
1
100
AcDbSymbolTableRecord
100
AcDbBlockTableRecord
  2
*D2
  0
BLOCK_RECORD
  5
13F
330
1
100
AcDbSymbolTableRecord
100
AcDbBlockTableRecord
  2
*D3
  0
BLOCK_RECORD
  5
152
330
1
100
AcDbSymbolTableRecord
100
AcDbBlockTableRecord
  2
*D4
  0
BLOCK_RECORD
  5
165
330
1
100
AcDbSymbolTableRecord
100
AcDbBlockTableRecord
  2
*D5
  0
BLOCK_RECORD
  5
178
330
1
100
AcDbSymbolTableRecord
100
AcDbBlockTableRecord
  2
*D6
  0
BLOCK_RECORD
  5
18B
330
1
100
AcDbSymbolTableRecord
100
AcDbBlockTableRecord
  2
*D7
  0
BLOCK_RECORD
  5
19E
330
1
100
AcDbSymbolTableRecord
100
AcDbBlockTableRecord
  2
*D8
  0
ENDTAB
  0
ENDSEC
  0
SECTION
  2
BLOCKS
  0
BLOCK
  5
20
330
1F
100
AcDbEntity
  8
0
100
AcDbBlockBegin
  2
*MODEL_SPACE
 70
     0
 10
0.0
 20
0.0
 30
0.0
  3
*MODEL_SPACE
  1

  0
ENDBLK
  5
21
330
1F
100
AcDbEntity
  8
0
100
AcDbBlockEnd
  0
BLOCK
  5
1C
330
1B
100
AcDbEntity
 67
     1
  8
0
100
AcDbBlockBegin
  2
*PAPER_SPACE
 70
     0
 10
0.0
 20
0.0
 30
0.0
  3
*PAPER_SPACE
  1

  0
ENDBLK
  5
1D
330
1B
100
AcDbEntity
 67
     1
  8
0
100
AcDbBlockEnd
  0
BLOCK
  5
116
330
115
100
AcDbEntity
  8
0
100
AcDbBlockBegin
  2
*D1
 70
     1
 10
0.0
 20
0.0
 30
0.0
  3
*D1
  1

  0
LINE
  5
117
330
115
100
AcDbEntity
  8
ANNOTATION_TEXT
 62
     7
100
AcDbLine
 10
226.4961531544955
 20
74.16206500288453
 30
0.0
 11
233.6587588785475
 21
74.16206500288453
 31
0.0
1001
INDEX
1070
     0
  0
LINE
  5
119
330
115
100
AcDbEntity
  8
ANNOTATION_TEXT
 62
     7
100
AcDbLine
 10
226.4961531544956
 20
174.1620650028845
 30
0.0
 11
233.6587588785475
 21
174.1620650028845
 31
0.0
1001
INDEX
1070
     1
  0
LINE
  5
11A
330
115
100
AcDbEntity
  8
ANNOTATION_TEXT
 62
     7
100
AcDbLine
 10
232.4087588785475
 20
76.66206500288453
 30
0.0
 11
232.4087588785475
 21
171.6620650028845
 31
0.0
1001
INDEX
1070
     3
  0
SOLID
  5
11B
330
115
100
AcDbEntity
  8
ANNOTATION_TEXT
 62
     7
100
AcDbTrace
 10
231.9920922118809
 20
76.66206500288453
 30
0.0
 11
232.8254255452142
 21
76.66206500288453
 31
0.0
 12
232.4087588785475
 22
74.16206500288453
 32
0.0
 13
232.4087588785475
 23
74.16206500288453
 33
0.0
  0
SOLID
  5
11C
330
115
100
AcDbEntity
  8
ANNOTATION_TEXT
 62
     7
100
AcDbTrace
 10
232.8254255452142
 20
171.6620650028845
 30
0.0
 11
231.9920922118809
 21
171.6620650028845
 31
0.0
 12
232.4087588785475
 22
174.1620650028845
 32
0.0
 13
232.4087588785475
 23
174.1620650028845
 33
0.0
  0
MTEXT
  5
11D
330
115
100
AcDbEntity
  8
ANNOTATION_TEXT
 62
     7
100
AcDbMText
 10
229.9896512491197
 20
124.1620650028845
 30
0.0
 40
3.5
 41
0.0
 71
     5
 72
     1
  1
600
  7
ONSHAPE-STANDARD-DIMENSION
 11
2.842170943040401E-16
 21
1.0
 31
0.0
  0
POINT
  5
11E
330
115
100
AcDbEntity
  8
DEFPOINTS
 62
     0
100
AcDbPoint
 10
225.8711531544955
 20
74.16206500288453
 30
0.0
  0
POINT
  5
11F
330
115
100
AcDbEntity
  8
DEFPOINTS
 62
     0
100
AcDbPoint
 10
225.8711531544956
 20
174.1620650028845
 30
0.0
  0
POINT
  5
120
330
115
100
AcDbEntity
  8
DEFPOINTS
 62
     0
100
AcDbPoint
 10
232.4087588785475
 20
174.1620650028845
 30
0.0
  0
POINT
  5
121
330
115
100
AcDbEntity
  8
DEFPOINTS
 62
     0
100
AcDbPoint
 10
232.4087588785475
 20
174.1620650028845
 30
0.0
  0
ENDBLK
  5
122
330
115
100
AcDbEntity
  8
0
100
AcDbBlockEnd
  0
BLOCK
  5
12D
330
12C
100
AcDbEntity
  8
0
100
AcDbBlockBegin
  2
*D2
 70
     1
 10
0.0
 20
0.0
 30
0.0
  3
*D2
  1

  0
LINE
  5
12E
330
12C
100
AcDbEntity
  8
ANNOTATION_TEXT
 62
     7
100
AcDbLine
 10
225.8711531544955
 20
73.53706500288453
 30
0.0
 11
225.8711531544955
 21
66.66293409759646
 31
0.0
1001
INDEX
1070
     0
  0
LINE
  5
12F
330
12C
100
AcDbEntity
  8
ANNOTATION_TEXT
 62
     7
100
AcDbLine
 10
75.87115315449556
 20
73.53706500288453
 30
0.0
 11
75.87115315449556
 21
66.66293409759646
 31
0.0
1001
INDEX
1070
     1
  0
LINE
  5
130
330
12C
100
AcDbEntity
  8
ANNOTATION_TEXT
 62
     7
100
AcDbLine
 10
223.3711531544955
 20
67.91293409759646
 30
0.0
 11
78.37115315449556
 21
67.91293409759646
 31
0.0
1001
INDEX
1070
     3
  0
SOLID
  5
131
330
12C
100
AcDbEntity
  8
ANNOTATION_TEXT
 62
     7
100
AcDbTrace
 10
223.3711531544955
 20
67.49626743092979
 30
0.0
 11
223.3711531544955
 21
68.32960076426313
 31
0.0
 12
225.8711531544955
 22
67.91293409759646
 32
0.0
 13
225.8711531544955
 23
67.91293409759646
 33
0.0
  0
SOLID
  5
132
330
12C
100
AcDbEntity
  8
ANNOTATION_TEXT
 62
     7
100
AcDbTrace
 10
78.37115315449556
 20
68.32960076426313
 30
0.0
 11
78.37115315449556
 21
67.49626743092979
 31
0.0
 12
75.87115315449556
 22
67.91293409759646
 32
0.0
 13
75.87115315449556
 23
67.91293409759646
 33
0.0
  0
MTEXT
  5
133
330
12C
100
AcDbEntity
  8
ANNOTATION_TEXT
 62
     7
100
AcDbMText
 10
156.0706526499423
 20
70.33204172702426
 30
0.0
 40
3.5
 41
0.0
 71
     5
 72
     1
  1
900
  7
ONSHAPE-STANDARD-DIMENSION
  0
POINT
  5
134
330
12C
100
AcDbEntity
  8
DEFPOINTS
 62
     0
100
AcDbPoint
 10
225.8711531544955
 20
74.16206500288453
 30
0.0
  0
POINT
  5
135
330
12C
100
AcDbEntity
  8
DEFPOINTS
 62
     0
100
AcDbPoint
 10
75.87115315449556
 20
74.16206500288453
 30
0.0
  0
POINT
  5
136
330
12C
100
AcDbEntity
  8
DEFPOINTS
 62
     0
100
AcDbPoint
 10
75.87115315449556
 20
67.91293409759646
 30
0.0
  0
POINT
  5
137
330
12C
100
AcDbEntity
  8
DEFPOINTS
 62
     0
100
AcDbPoint
 10
75.87115315449556
 20
67.91293409759646
 30
0.0
  0
ENDBLK
  5
138
330
12C
100
AcDbEntity
  8
0
100
AcDbBlockEnd
  0
BLOCK
  5
140
330
13F
100
AcDbEntity
  8
0
100
AcDbBlockBegin
  2
*D3
 70
     1
 10
0.0
 20
0.0
 30
0.0
  3
*D3
  1

  0
LINE
  5
141
330
13F
100
AcDbEntity
  8
ANNOTATION_TEXT
 62
     7
100
AcDbLine
 10
108.5794864878289
 20
174.1620650028845
 30
0.0
 11
104.1804054251721
 21
174.1620650028845
 31
0.0
1001
INDEX
1070
     0
  0
LINE
  5
142
330
13F
100
AcDbEntity
  8
ANNOTATION_TEXT
 62
     7
100
AcDbLine
 10
108.5794864878289
 20
127.4953983362178
 30
0.0
 11
104.1804054251721
 21
127.4953983362178
 31
0.0
1001
INDEX
1070
     1
  0
LINE
  5
143
330
13F
100
AcDbEntity
  8
ANNOTATION_TEXT
 62
     7
100
AcDbLine
 10
105.4304054251721
 20
171.6620650028845
 30
0.0
 11
105.4304054251721
 21
129.9953983362178
 31
0.0
1001
INDEX
1070
     3
  0
SOLID
  5
144
330
13F
100
AcDbEntity
  8
ANNOTATION_TEXT
 62
     7
100
AcDbTrace
 10
105.8470720918388
 20
171.6620650028845
 30
0.0
 11
105.0137387585055
 21
171.6620650028845
 31
0.0
 12
105.4304054251721
 22
174.1620650028845
 32
0.0
 13
105.4304054251721
 23
174.1620650028845
 33
0.0
  0
SOLID
  5
145
330
13F
100
AcDbEntity
  8
ANNOTATION_TEXT
 62
     7
100
AcDbTrace
 10
105.0137387585055
 20
129.9953983362178
 30
0.0
 11
105.8470720918388
 21
129.9953983362178
 31
0.0
 12
105.4304054251721
 22
127.4953983362178
 32
0.0
 13
105.4304054251721
 23
127.4953983362178
 33
0.0
  0
MTEXT
  5
146
330
13F
100
AcDbEntity
  8
ANNOTATION_TEXT
 62
     7
100
AcDbMText
 10
103.0112977957443
 20
153.3140884388717
 30
0.0
 40
3.5
 41
0.0
 71
     5
 72
     1
  1
280
  7
ONSHAPE-STANDARD-DIMENSION
 11
0.0
 21
1.0
 31
0.0
  0
POINT
  5
147
330
13F
100
AcDbEntity
  8
DEFPOINTS
 62
     0
100
AcDbPoint
 10
109.2044864878289
 20
174.1620650028845
 30
0.0
  0
POINT
  5
148
330
13F
100
AcDbEntity
  8
DEFPOINTS
 62
     0
100
AcDbPoint
 10
109.2044864878289
 20
127.4953983362178
 30
0.0
  0
POINT
  5
149
330
13F
100
AcDbEntity
  8
DEFPOINTS
 62
     0
100
AcDbPoint
 10
105.4304054251721
 20
127.4953983362178
 30
0.0
  0
POINT
  5
14A
330
13F
100
AcDbEntity
  8
DEFPOINTS
 62
     0
100
AcDbPoint
 10
105.4304054251721
 20
127.4953983362178
 30
0.0
  0
ENDBLK
  5
14B
330
13F
100
AcDbEntity
  8
0
100
AcDbBlockEnd
  0
BLOCK
  5
153
330
152
100
AcDbEntity
  8
0
100
AcDbBlockBegin
  2
*D4
 70
     1
 10
0.0
 20
0.0
 30
0.0
  3
*D4
  1

  0
LINE
  5
154
330
152
100
AcDbEntity
  8
ANNOTATION_TEXT
 62
     7
100
AcDbLine
 10
75.87115315449556
 20
128.1203983362178
 30
0.0
 11
75.87115315449556
 21
131.7509401458823
 31
0.0
1001
INDEX
1070
     0
  0
LINE
  5
155
330
152
100
AcDbEntity
  8
ANNOTATION_TEXT
 62
     7
100
AcDbLine
 10
109.2044864878289
 20
128.1203983362178
 30
0.0
 11
109.2044864878289
 21
131.7509401458823
 31
0.0
1001
INDEX
1070
     1
  0
LINE
  5
156
330
152
100
AcDbEntity
  8
ANNOTATION_TEXT
 62
     7
100
AcDbLine
 10
78.37115315449556
 20
130.5009401458823
 30
0.0
 11
105.3679054251721
 21
130.5009401458823
 31
0.0
1001
INDEX
1070
     3
  0
LINE
  5
157
330
152
100
AcDbEntity
  8
ANNOTATION_TEXT
 62
     7
100
AcDbLine
 10
105.4929054251721
 20
130.5009401458823
 30
0.0
 11
106.7044864878289
 21
130.5009401458823
 31
0.0
1001
INDEX
1070
     3
  0
SOLID
  5
158
330
152
100
AcDbEntity
  8
ANNOTATION_TEXT
 62
     7
100
AcDbTrace
 10
78.37115315449556
 20
130.917606812549
 30
0.0
 11
78.37115315449556
 21
130.0842734792157
 31
0.0
 12
75.87115315449556
 22
130.5009401458823
 32
0.0
 13
75.87115315449556
 23
130.5009401458823
 33
0.0
  0
SOLID
  5
159
330
152
100
AcDbEntity
  8
ANNOTATION_TEXT
 62
     7
100
AcDbTrace
 10
106.7044864878289
 20
130.0842734792157
 30
0.0
 11
106.7044864878289
 21
130.917606812549
 31
0.0
 12
109.2044864878289
 22
130.5009401458823
 32
0.0
 13
109.2044864878289
 23
130.5009401458823
 33
0.0
  0
MTEXT
  5
15A
330
152
100
AcDbEntity
  8
ANNOTATION_TEXT
 62
     7
100
AcDbMText
 10
92.53781982116223
 20
132.9200477753101
 30
0.0
 40
3.5
 41
0.0
 71
     5
 72
     1
  1
200
  7
ONSHAPE-STANDARD-DIMENSION
  0
POINT
  5
15B
330
152
100
AcDbEntity
  8
DEFPOINTS
 62
     0
100
AcDbPoint
 10
75.87115315449556
 20
127.4953983362178
 30
0.0
  0
POINT
  5
15C
330
152
100
AcDbEntity
  8
DEFPOINTS
 62
     0
100
AcDbPoint
 10
109.2044864878289
 20
127.4953983362178
 30
0.0
  0
POINT
  5
15D
330
152
100
AcDbEntity
  8
DEFPOINTS
 62
     0
100
AcDbPoint
 10
109.2044864878289
 20
130.5009401458823
 30
0.0
  0
POINT
  5
1AB
330
152
100
AcDbEntity
  8
DEFPOINTS
 62
     0
100
AcDbPoint
 10
109.2044864878289
 20
130.5009401458823
 30
0.0
  0
ENDBLK
  5
15E
330
152
100
AcDbEntity
  8
0
100
AcDbBlockEnd
  0
BLOCK
  5
166
330
165
100
AcDbEntity
  8
0
100
AcDbBlockBegin
  2
*D5
 70
     1
 10
0.0
 20
0.0
 30
0.0
  3
*D5
  1

  0
LINE
  5
167
330
165
100
AcDbEntity
  8
ANNOTATION_TEXT
 62
     7
100
AcDbLine
 10
109.8294864878289
 20
174.1620650028845
 30
0.0
 11
164.2124762904291
 21
174.1620650028845
 31
0.0
1001
INDEX
1070
     0
  0
LINE
  5
168
330
165
100
AcDbEntity
  8
ANNOTATION_TEXT
 62
     7
100
AcDbLine
 10
109.8294864878289
 20
140.8287316695512
 30
0.0
 11
164.2124762904291
 21
140.8287316695512
 31
0.0
1001
INDEX
1070
     1
  0
LINE
  5
169
330
165
100
AcDbEntity
  8
ANNOTATION_TEXT
 62
     7
100
AcDbLine
 10
162.9624762904291
 20
171.6620650028845
 30
0.0
 11
162.9624762904291
 21
143.3287316695512
 31
0.0
1001
INDEX
1070
     3
  0
SOLID
  5
16A
330
165
100
AcDbEntity
  8
ANNOTATION_TEXT
 62
     7
100
AcDbTrace
 10
163.3791429570958
 20
171.6620650028845
 30
0.0
 11
162.5458096237624
 21
171.6620650028845
 31
0.0
 12
162.9624762904291
 22
174.1620650028845
 32
0.0
 13
162.9624762904291
 23
174.1620650028845
 33
0.0
  0
SOLID
  5
16B
330
165
100
AcDbEntity
  8
ANNOTATION_TEXT
 62
     7
100
AcDbTrace
 10
162.5458096237624
 20
143.3287316695512
 30
0.0
 11
163.3791429570958
 21
143.3287316695512
 31
0.0
 12
162.9624762904291
 22
140.8287316695512
 32
0.0
 13
162.9624762904291
 23
140.8287316695512
 33
0.0
  0
MTEXT
  5
16C
330
165
100
AcDbEntity
  8
ANNOTATION_TEXT
 62
     7
100
AcDbMText
 10
160.5433686610013
 20
156.9069497586425
 30
0.0
 40
3.5
 41
0.0
 71
     5
 72
     1
  1
200
  7
ONSHAPE-STANDARD-DIMENSION
 11
0.0
 21
1.0
 31
0.0
  0
POINT
  5
16D
330
165
100
AcDbEntity
  8
DEFPOINTS
 62
     0
100
AcDbPoint
 10
109.2044864878289
 20
174.1620650028845
 30
0.0
  0
POINT
  5
16E
330
165
100
AcDbEntity
  8
DEFPOINTS
 62
     0
100
AcDbPoint
 10
109.2044864878289
 20
140.8287316695512
 30
0.0
  0
POINT
  5
16F
330
165
100
AcDbEntity
  8
DEFPOINTS
 62
     0
100
AcDbPoint
 10
162.9624762904291
 20
140.8287316695512
 30
0.0
  0
POINT
  5
170
330
165
100
AcDbEntity
  8
DEFPOINTS
 62
     0
100
AcDbPoint
 10
162.9624762904291
 20
140.8287316695512
 30
0.0
  0
ENDBLK
  5
171
330
165
100
AcDbEntity
  8
0
100
AcDbBlockEnd
  0
BLOCK
  5
179
330
178
100
AcDbEntity
  8
0
100
AcDbBlockBegin
  2
*D6
 70
     1
 10
0.0
 20
0.0
 30
0.0
  3
*D6
  1

  0
LINE
  5
17A
330
178
100
AcDbEntity
  8
ANNOTATION_TEXT
 62
     7
100
AcDbLine
 10
109.2044864878289
 20
141.4537316695512
 30
0.0
 11
109.2044864878289
 21
146.1592443309283
 31
0.0
1001
INDEX
1070
     0
  0
LINE
  5
17B
330
178
100
AcDbEntity
  8
ANNOTATION_TEXT
 62
     7
100
AcDbLine
 10
166.7044864878289
 20
141.4537316695512
 30
0.0
 11
166.7044864878289
 21
146.1592443309283
 31
0.0
1001
INDEX
1070
     1
  0
LINE
  5
17C
330
178
100
AcDbEntity
  8
ANNOTATION_TEXT
 62
     7
100
AcDbLine
 10
111.7044864878289
 20
144.9092443309283
 30
0.0
 11
162.8999762904291
 21
144.9092443309283
 31
0.0
1001
INDEX
1070
     3
  0
LINE
  5
17D
330
178
100
AcDbEntity
  8
ANNOTATION_TEXT
 62
     7
100
AcDbLine
 10
163.0249762904291
 20
144.9092443309283
 30
0.0
 11
164.2044864878289
 21
144.9092443309283
 31
0.0
1001
INDEX
1070
     3
  0
SOLID
  5
17E
330
178
100
AcDbEntity
  8
ANNOTATION_TEXT
 62
     7
100
AcDbTrace
 10
111.7044864878289
 20
145.3259109975949
 30
0.0
 11
111.7044864878289
 21
144.4925776642616
 31
0.0
 12
109.2044864878289
 22
144.9092443309283
 32
0.0
 13
109.2044864878289
 23
144.9092443309283
 33
0.0
  0
SOLID
  5
17F
330
178
100
AcDbEntity
  8
ANNOTATION_TEXT
 62
     7
100
AcDbTrace
 10
164.2044864878289
 20
144.4925776642616
 30
0.0
 11
164.2044864878289
 21
145.3259109975949
 31
0.0
 12
166.7044864878289
 22
144.9092443309283
 32
0.0
 13
166.7044864878289
 23
144.9092443309283
 33
0.0
  0
MTEXT
  5
180
330
178
100
AcDbEntity
  8
ANNOTATION_TEXT
 62
     7
100
AcDbMText
 10
136.9289992189458
 20
147.3259677641708
 30
0.0
 40
3.5
 41
0.0
 71
     5
 72
     1
  1
345
  7
ONSHAPE-STANDARD-DIMENSION
  0
POINT
  5
181
330
178
100
AcDbEntity
  8
DEFPOINTS
 62
     0
100
AcDbPoint
 10
109.2044864878289
 20
140.8287316695512
 30
0.0
  0
POINT
  5
182
330
178
100
AcDbEntity
  8
DEFPOINTS
 62
     0
100
AcDbPoint
 10
166.7044864878289
 20
140.8287316695512
 30
0.0
  0
POINT
  5
183
330
178
100
AcDbEntity
  8
DEFPOINTS
 62
     0
100
AcDbPoint
 10
166.7044864878289
 20
144.9092443309283
 30
0.0
  0
POINT
  5
1AC
330
178
100
AcDbEntity
  8
DEFPOINTS
 62
     0
100
AcDbPoint
 10
166.7044864878289
 20
144.9092443309283
 30
0.0
  0
ENDBLK
  5
184
330
178
100
AcDbEntity
  8
0
100
AcDbBlockEnd
  0
BLOCK
  5
18C
330
18B
100
AcDbEntity
  8
0
100
AcDbBlockBegin
  2
*D7
 70
     1
 10
0.0
 20
0.0
 30
0.0
  3
*D7
  1

  0
LINE
  5
18D
330
18B
100
AcDbEntity
  8
ANNOTATION_TEXT
 62
     7
100
AcDbLine
 10
167.3294864878289
 20
174.1620650028845
 30
0.0
 11
221.9447466872937
 21
174.1620650028845
 31
0.0
1001
INDEX
1070
     0
  0
LINE
  5
18E
330
18B
100
AcDbEntity
  8
ANNOTATION_TEXT
 62
     7
100
AcDbLine
 10
167.3294864878289
 20
140.8287316695512
 30
0.0
 11
221.9447466872937
 21
140.8287316695512
 31
0.0
1001
INDEX
1070
     1
  0
LINE
  5
18F
330
18B
100
AcDbEntity
  8
ANNOTATION_TEXT
 62
     7
100
AcDbLine
 10
220.6947466872937
 20
171.6620650028845
 30
0.0
 11
220.6947466872937
 21
143.3287316695512
 31
0.0
1001
INDEX
1070
     3
  0
SOLID
  5
190
330
18B
100
AcDbEntity
  8
ANNOTATION_TEXT
 62
     7
100
AcDbTrace
 10
221.1114133539604
 20
171.6620650028845
 30
0.0
 11
220.278080020627
 21
171.6620650028845
 31
0.0
 12
220.6947466872937
 22
174.1620650028845
 32
0.0
 13
220.6947466872937
 23
174.1620650028845
 33
0.0
  0
SOLID
  5
191
330
18B
100
AcDbEntity
  8
ANNOTATION_TEXT
 62
     7
100
AcDbTrace
 10
220.278080020627
 20
143.3287316695512
 30
0.0
 11
221.1114133539604
 21
143.3287316695512
 31
0.0
 12
220.6947466872937
 22
140.8287316695512
 32
0.0
 13
220.6947466872937
 23
140.8287316695512
 33
0.0
  0
MTEXT
  5
192
330
18B
100
AcDbEntity
  8
ANNOTATION_TEXT
 62
     7
100
AcDbMText
 10
218.2756390578659
 20
156.9069497586425
 30
0.0
 40
3.5
 41
0.0
 71
     5
 72
     1
  1
200
  7
ONSHAPE-STANDARD-DIMENSION
 11
0.0
 21
1.0
 31
0.0
  0
POINT
  5
193
330
18B
100
AcDbEntity
  8
DEFPOINTS
 62
     0
100
AcDbPoint
 10
166.7044864878289
 20
174.1620650028845
 30
0.0
  0
POINT
  5
194
330
18B
100
AcDbEntity
  8
DEFPOINTS
 62
     0
100
AcDbPoint
 10
166.7044864878289
 20
140.8287316695512
 30
0.0
  0
POINT
  5
195
330
18B
100
AcDbEntity
  8
DEFPOINTS
 62
     0
100
AcDbPoint
 10
220.6947466872937
 20
140.8287316695512
 30
0.0
  0
POINT
  5
196
330
18B
100
AcDbEntity
  8
DEFPOINTS
 62
     0
100
AcDbPoint
 10
220.6947466872937
 20
140.8287316695512
 30
0.0
  0
ENDBLK
  5
197
330
18B
100
AcDbEntity
  8
0
100
AcDbBlockEnd
  0
BLOCK
  5
19F
330
19E
100
AcDbEntity
  8
0
100
AcDbBlockBegin
  2
*D8
 70
     1
 10
0.0
 20
0.0
 30
0.0
  3
*D8
  1

  0
LINE
  5
1A0
330
19E
100
AcDbEntity
  8
ANNOTATION_TEXT
 62
     7
100
AcDbLine
 10
166.7044864878289
 20
141.4537316695512
 30
0.0
 11
166.7044864878289
 21
146.1592443309283
 31
0.0
1001
INDEX
1070
     0
  0
LINE
  5
1A1
330
19E
100
AcDbEntity
  8
ANNOTATION_TEXT
 62
     7
100
AcDbLine
 10
223.3711531544956
 20
141.4537316695512
 30
0.0
 11
223.3711531544956
 21
146.1592443309283
 31
0.0
1001
INDEX
1070
     1
  0
LINE
  5
1A2
330
19E
100
AcDbEntity
  8
ANNOTATION_TEXT
 62
     7
100
AcDbLine
 10
169.2044864878289
 20
144.9092443309283
 30
0.0
 11
220.6322466872937
 21
144.9092443309283
 31
0.0
1001
INDEX
1070
     3
  0
LINE
  5
1A3
330
19E
100
AcDbEntity
  8
ANNOTATION_TEXT
 62
     7
100
AcDbLine
 10
220.7572466872937
 20
144.9092443309283
 30
0.0
 11
220.8711531544956
 21
144.9092443309283
 31
0.0
1001
INDEX
1070
     3
  0
SOLID
  5
1A4
330
19E
100
AcDbEntity
  8
ANNOTATION_TEXT
 62
     7
100
AcDbTrace
 10
169.2044864878289
 20
145.3259109975949
 30
0.0
 11
169.2044864878289
 21
144.4925776642616
 31
0.0
 12
166.7044864878289
 22
144.9092443309283
 32
0.0
 13
166.7044864878289
 23
144.9092443309283
 33
0.0
  0
SOLID
  5
1A5
330
19E
100
AcDbEntity
  8
ANNOTATION_TEXT
 62
     7
100
AcDbTrace
 10
220.8711531544956
 20
144.4925776642616
 30
0.0
 11
220.8711531544956
 21
145.3259109975949
 31
0.0
 12
223.3711531544956
 22
144.9092443309283
 32
0.0
 13
223.3711531544956
 23
144.9092443309283
 33
0.0
  0
MTEXT
  5
1A6
330
19E
100
AcDbEntity
  8
ANNOTATION_TEXT
 62
     7
100
AcDbMText
 10
196.282767925323
 20
147.3283519603561
 30
0.0
 40
3.5
 41
0.0
 71
     5
 72
     1
  1
340
  7
ONSHAPE-STANDARD-DIMENSION
  0
POINT
  5
1A7
330
19E
100
AcDbEntity
  8
DEFPOINTS
 62
     0
100
AcDbPoint
 10
166.7044864878289
 20
140.8287316695512
 30
0.0
  0
POINT
  5
1A8
330
19E
100
AcDbEntity
  8
DEFPOINTS
 62
     0
100
AcDbPoint
 10
223.3711531544956
 20
140.8287316695512
 30
0.0
  0
POINT
  5
1A9
330
19E
100
AcDbEntity
  8
DEFPOINTS
 62
     0
100
AcDbPoint
 10
223.3711531544956
 20
144.9092443309283
 30
0.0
  0
POINT
  5
1AD
330
19E
100
AcDbEntity
  8
DEFPOINTS
 62
     0
100
AcDbPoint
 10
223.3711531544956
 20
144.9092443309283
 30
0.0
  0
ENDBLK
  5
1AA
330
19E
100
AcDbEntity
  8
0
100
AcDbBlockEnd
  0
ENDSEC
  0
SECTION
  2
ENTITIES
  0
LINE
  5
77
330
1F
100
AcDbEntity
  8
MODELSKETCH_VISIBLE
100
AcDbLine
 10
75.87115315449556
 20
174.1620650028845
 30
0.0
 11
75.87115315449556
 21
127.4953983362178
 31
0.0
  0
LINE
  5
78
330
1F
100
AcDbEntity
  8
MODELSKETCH_VISIBLE
100
AcDbLine
 10
166.7044864878289
 20
174.1620650028845
 30
0.0
 11
223.3711531544956
 21
174.1620650028845
 31
0.0
  0
LINE
  5
79
330
1F
100
AcDbEntity
  8
MODELSKETCH_VISIBLE
100
AcDbLine
 10
223.3711531544956
 20
174.1620650028845
 30
0.0
 11
223.3711531544956
 21
140.8287316695512
 31
0.0
  0
LINE
  5
7A
330
1F
100
AcDbEntity
  8
MODELSKETCH_VISIBLE
100
AcDbLine
 10
75.87115315449556
 20
127.4953983362178
 30
0.0
 11
109.2044864878289
 21
127.4953983362178
 31
0.0
  0
LINE
  5
7B
330
1F
100
AcDbEntity
  8
MODELSKETCH_VISIBLE
100
AcDbLine
 10
166.7044864878289
 20
174.1620650028845
 30
0.0
 11
166.7044864878289
 21
140.8287316695512
 31
0.0
  0
LINE
  5
7C
330
1F
100
AcDbEntity
  8
MODELSKETCH_VISIBLE
100
AcDbLine
 10
166.7044864878289
 20
174.1620650028845
 30
0.0
 11
166.7044864878289
 21
140.8287316695512
 31
0.0
  0
LINE
  5
7D
330
1F
100
AcDbEntity
  8
MODELSKETCH_VISIBLE
100
AcDbLine
 10
75.87115315449556
 20
174.1620650028845
 30
0.0
 11
109.2044864878289
 21
174.1620650028845
 31
0.0
  0
LINE
  5
7E
330
1F
100
AcDbEntity
  8
MODELSKETCH_VISIBLE
100
AcDbLine
 10
109.2044864878289
 20
174.1620650028845
 30
0.0
 11
109.2044864878289
 21
140.8287316695512
 31
0.0
  0
LINE
  5
7F
330
1F
100
AcDbEntity
  8
MODELSKETCH_VISIBLE
100
AcDbLine
 10
166.7044864878289
 20
140.8287316695512
 30
0.0
 11
223.3711531544956
 21
140.8287316695512
 31
0.0
  0
LINE
  5
80
330
1F
100
AcDbEntity
  8
MODELSKETCH_VISIBLE
100
AcDbLine
 10
75.87115315449556
 20
74.16206500288453
 30
0.0
 11
75.87115315449556
 21
174.1620650028845
 31
0.0
  0
LINE
  5
81
330
1F
100
AcDbEntity
  8
MODELSKETCH_VISIBLE
100
AcDbLine
 10
109.2044864878289
 20
174.1620650028845
 30
0.0
 11
109.2044864878289
 21
127.4953983362178
 31
0.0
  0
LINE
  5
82
330
1F
100
AcDbEntity
  8
MODELSKETCH_VISIBLE
100
AcDbLine
 10
225.8711531544955
 20
74.16206500288453
 30
0.0
 11
75.87115315449556
 21
74.16206500288453
 31
0.0
  0
LINE
  5
83
330
1F
100
AcDbEntity
  8
MODELSKETCH_VISIBLE
100
AcDbLine
 10
225.8711531544956
 20
174.1620650028845
 30
0.0
 11
75.87115315449556
 21
174.1620650028845
 31
0.0
  0
LINE
  5
84
330
1F
100
AcDbEntity
  8
MODELSKETCH_VISIBLE
100
AcDbLine
 10
109.2044864878289
 20
174.1620650028845
 30
0.0
 11
166.7044864878289
 21
174.1620650028845
 31
0.0
  0
LINE
  5
85
330
1F
100
AcDbEntity
  8
MODELSKETCH_VISIBLE
100
AcDbLine
 10
225.8711531544955
 20
74.16206500288453
 30
0.0
 11
225.8711531544956
 21
174.1620650028845
 31
0.0
  0
LINE
  5
86
330
1F
100
AcDbEntity
  8
MODELSKETCH_VISIBLE
100
AcDbLine
 10
109.2044864878289
 20
140.8287316695512
 30
0.0
 11
166.7044864878289
 21
140.8287316695512
 31
0.0
  0
CIRCLE
  5
87
330
1F
100
AcDbEntity
  8
MODELSKETCH_POINT
100
AcDbCircle
 10
150.8711531544955
 20
124.1620650028845
 30
0.0
 40
0.5
  0
LINE
  5
88
330
1F
100
AcDbEntity
  8
BORDER_FRAME
100
AcDbLine
 10
20.0
 20
10.0
 30
0.0
 11
20.0
 21
200.0
 31
0.0
  0
LINE
  5
8B
330
1F
100
AcDbEntity
  8
BORDER_FRAME
100
AcDbLine
 10
20.0
 20
200.0
 30
0.0
 11
297.0
 21
200.0
 31
0.0
  0
LINE
  5
8C
330
1F
100
AcDbEntity
  8
BORDER_FRAME
100
AcDbLine
 10
297.0
 20
200.0
 30
0.0
 11
297.0
 21
10.0
 31
0.0
  0
LINE
  5
8D
330
1F
100
AcDbEntity
  8
BORDER_FRAME
100
AcDbLine
 10
297.0
 20
10.0
 30
0.0
 11
20.0
 21
10.0
 31
0.0
  0
LINE
  5
8E
330
1F
100
AcDbEntity
  8
TITLE_BLOCK
100
AcDbLine
 10
135.075
 20
10.0
 30
0.0
 11
135.075
 21
48.09999999999999
 31
0.0
  0
LINE
  5
90
330
1F
100
AcDbEntity
  8
TITLE_BLOCK
100
AcDbLine
 10
135.075
 20
10.0
 30
0.0
 11
165.555
 21
10.0
 31
0.0
  0
LINE
  5
91
330
1F
100
AcDbEntity
  8
TITLE_BLOCK
100
AcDbLine
 10
135.075
 20
17.62
 30
0.0
 11
165.555
 21
17.62
 31
0.0
  0
LINE
  5
92
330
1F
100
AcDbEntity
  8
TITLE_BLOCK
100
AcDbLine
 10
135.075
 20
20.668
 30
0.0
 11
165.555
 21
20.668
 31
0.0
  0
LINE
  5
93
330
1F
100
AcDbEntity
  8
TITLE_BLOCK
100
AcDbLine
 10
135.075
 20
25.8496
 30
0.0
 11
165.555
 21
25.8496
 31
0.0
  0
LINE
  5
94
330
1F
100
AcDbEntity
  8
TITLE_BLOCK
100
AcDbLine
 10
135.075
 20
30.2692
 30
0.0
 11
165.555
 21
30.2692
 31
0.0
  0
LINE
  5
95
330
1F
100
AcDbEntity
  8
TITLE_BLOCK
100
AcDbLine
 10
135.075
 20
48.09999999999999
 30
0.0
 11
165.555
 21
48.09999999999999
 31
0.0
  0
MTEXT
  5
96
330
1F
100
AcDbEntity
  8
TITLE_BLOCK
100
AcDbMText
 10
135.74556
 20
47.00272
 30
0.0
 40
1.2192
 41
29.87039999999999
 71
     1
 72
     1
  1
UNLESS OTHERWISE SPECIFIED, DIMENSIONS ARE IN MILLIMETERS
  7
ONSHAPE-STANDARD
  0
MTEXT
  5
98
330
1F
100
AcDbEntity
  8
TITLE_BLOCK
100
AcDbMText
 10
150.918504
 20
42.540448
 30
0.0
 40
1.09728
 41
14.93519999999998
 71
     1
 72
     1
  1
^JANGULAR = ± °^J
  7
ONSHAPE-STANDARD
  0
MTEXT
  5
99
330
1F
100
AcDbEntity
  8
TITLE_BLOCK
100
AcDbMText
 10
135.74556
 20
35.11552
 30
0.0
 40
1.2192
 41
14.93520000000001
 71
     1
 72
     1
  1
SURFACE FINISH
  7
ONSHAPE-STANDARD
  0
LINE
  5
9A
330
1F
100
AcDbEntity
  8
TITLE_BLOCK
100
AcDbLine
 10
148.791
 20
33.3172
 30
0.0
 11
149.553
 21
31.99737728463252
 31
0.0
  0
LINE
  5
9B
330
1F
100
AcDbEntity
  8
TITLE_BLOCK
100
AcDbLine
 10
149.553
 20
31.99737728463252
 30
0.0
 11
151.1532
 21
34.76900498690424
 31
0.0
  0
LINE
  5
9C
330
1F
100
AcDbEntity
  8
TITLE_BLOCK
100
AcDbLine
 10
151.1532
 20
34.76900498690424
 30
0.0
 11
152.8296
 21
34.76900498690424
 31
0.0
  0
MTEXT
  5
9D
330
1F
100
AcDbEntity
  8
TITLE_BLOCK
100
AcDbMText
 10
150.315
 20
28.842736
 30
0.0
 40
1.58496
 41
29.87039999999999
 71
     2
 72
     1
  1
DO NOT SCALE DRAWING
  7
ONSHAPE-STANDARD
  0
MTEXT
  5
9E
330
1F
100
AcDbEntity
  8
TITLE_BLOCK
100
AcDbMText
 10
150.315
 20
24.75232
 30
0.0
 40
1.2192
 41
29.87039999999999
 71
     2
 72
     1
  1
BREAK ALL SHARP EDGES AND REMOVE BURRS
  7
ONSHAPE-STANDARD
  0
CIRCLE
  5
9F
330
1F
100
AcDbEntity
  8
TITLE_BLOCK
100
AcDbCircle
 10
153.744
 20
13.77952
 30
0.0
 40
1.3716
  0
CIRCLE
  5
A0
330
1F
100
AcDbEntity
  8
TITLE_BLOCK
100
AcDbCircle
 10
153.744
 20
13.77952
 30
0.0
 40
2.743199999999999
  0
LINE
  5
A1
330
1F
100
AcDbEntity
  8
TITLE_BLOCK
100
AcDbLine
 10
154.4298
 20
13.77952
 30
0.0
 11
153.0582
 21
13.77952
 31
0.0
  0
LINE
  5
A2
330
1F
100
AcDbEntity
  8
TITLE_BLOCK
100
AcDbLine
 10
153.744
 20
14.46532
 30
0.0
 11
153.744
 21
13.09372
 31
0.0
  0
LINE
  5
A3
330
1F
100
AcDbEntity
  8
TITLE_BLOCK
100
AcDbLine
 10
155.1156
 20
13.77952
 30
0.0
 11
157.173
 21
13.77952
 31
0.0
  0
LINE
  5
A4
330
1F
100
AcDbEntity
  8
TITLE_BLOCK
100
AcDbLine
 10
153.744
 20
15.15112
 30
0.0
 11
153.744
 21
17.20852
 31
0.0
  0
LINE
  5
A5
330
1F
100
AcDbEntity
  8
TITLE_BLOCK
100
AcDbLine
 10
152.3724
 20
13.77952
 30
0.0
 11
150.315
 21
13.77952
 31
0.0
  0
LINE
  5
A6
330
1F
100
AcDbEntity
  8
TITLE_BLOCK
100
AcDbLine
 10
153.744
 20
12.40792
 30
0.0
 11
153.744
 21
10.35052
 31
0.0
  0
LINE
  5
A7
330
1F
100
AcDbEntity
  8
TITLE_BLOCK
100
AcDbLine
 10
149.6292
 20
11.03632
 30
0.0
 11
149.6292
 21
16.52272
 31
0.0
  0
LINE
  5
A8
330
1F
100
AcDbEntity
  8
TITLE_BLOCK
100
AcDbLine
 10
149.6292
 20
16.52272
 30
0.0
 11
144.1428
 21
15.15112
 31
0.0
  0
LINE
  5
A9
330
1F
100
AcDbEntity
  8
TITLE_BLOCK
100
AcDbLine
 10
144.1428
 20
15.15112
 30
0.0
 11
144.1428
 21
12.40792
 31
0.0
  0
LINE
  5
AA
330
1F
100
AcDbEntity
  8
TITLE_BLOCK
100
AcDbLine
 10
144.1428
 20
12.40792
 30
0.0
 11
149.6292
 21
11.03632
 31
0.0
  0
LINE
  5
AB
330
1F
100
AcDbEntity
  8
TITLE_BLOCK
100
AcDbLine
 10
147.5718
 20
13.77952
 30
0.0
 11
149.9721
 21
13.77952
 31
0.0
  0
LINE
  5
AC
330
1F
100
AcDbEntity
  8
TITLE_BLOCK
100
AcDbLine
 10
147.16032
 20
13.77952
 30
0.0
 11
146.61168
 21
13.77952
 31
0.0
  0
LINE
  5
AD
330
1F
100
AcDbEntity
  8
TITLE_BLOCK
100
AcDbLine
 10
146.2002
 20
13.77952
 30
0.0
 11
143.7999
 21
13.77952
 31
0.0
  0
MTEXT
  5
AE
330
1F
100
AcDbEntity
  8
TITLE_BLOCK
100
AcDbMText
 10
150.315
 20
19.57072
 30
0.0
 40
1.2192
 41
29.87039999999999
 71
     2
 72
     1
  1
FIRST ANGLE PROJECTION
  7
ONSHAPE-STANDARD
  0
LINE
  5
AF
330
1F
100
AcDbEntity
  8
TITLE_BLOCK
100
AcDbLine
 10
165.555
 20
10.0
 30
0.0
 11
165.555
 21
48.09999999999999
 31
0.0
  0
LINE
  5
B0
330
1F
100
AcDbEntity
  8
TITLE_BLOCK
100
AcDbLine
 10
178.89
 20
20.668
 30
0.0
 11
178.89
 21
48.09999999999999
 31
0.0
  0
LINE
  5
B1
330
1F
100
AcDbEntity
  8
TITLE_BLOCK
100
AcDbLine
 10
194.13
 20
20.668
 30
0.0
 11
194.13
 21
48.09999999999999
 31
0.0
  0
LINE
  5
B2
330
1F
100
AcDbEntity
  8
TITLE_BLOCK
100
AcDbLine
 10
192.225
 20
10.0
 30
0.0
 11
192.225
 21
20.668
 31
0.0
  0
MTEXT
  5
B3
330
1F
100
AcDbEntity
  8
TITLE_BLOCK
100
AcDbMText
 10
201.75
 20
47.00272
 30
0.0
 40
1.2192
 41
14.93520000000001
 71
     2
 72
     1
  1
SIGNATURE
  7
ONSHAPE-STANDARD
  0
LINE
  5
B4
330
1F
100
AcDbEntity
  8
TITLE_BLOCK
100
AcDbLine
 10
209.37
 20
20.668
 30
0.0
 11
209.37
 21
48.09999999999999
 31
0.0
  0
LINE
  5
B5
330
1F
100
AcDbEntity
  8
TITLE_BLOCK
100
AcDbLine
 10
165.555
 20
48.09999999999999
 30
0.0
 11
218.895
 21
48.09999999999999
 31
0.0
  0
LINE
  5
B6
330
1F
100
AcDbEntity
  8
TITLE_BLOCK
100
AcDbLine
 10
165.555
 20
43.528
 30
0.0
 11
218.895
 21
43.528
 31
0.0
  0
LINE
  5
B7
330
1F
100
AcDbEntity
  8
TITLE_BLOCK
100
AcDbLine
 10
165.555
 20
38.956
 30
0.0
 11
218.895
 21
38.956
 31
0.0
  0
LINE
  5
B8
330
1F
100
AcDbEntity
  8
TITLE_BLOCK
100
AcDbLine
 10
165.555
 20
34.384
 30
0.0
 11
218.895
 21
34.384
 31
0.0
  0
LINE
  5
B9
330
1F
100
AcDbEntity
  8
TITLE_BLOCK
100
AcDbLine
 10
165.555
 20
29.812
 30
0.0
 11
218.895
 21
29.812
 31
0.0
  0
LINE
  5
BA
330
1F
100
AcDbEntity
  8
TITLE_BLOCK
100
AcDbLine
 10
165.555
 20
25.24
 30
0.0
 11
218.895
 21
25.24
 31
0.0
  0
LINE
  5
BB
330
1F
100
AcDbEntity
  8
TITLE_BLOCK
100
AcDbLine
 10
165.555
 20
20.668
 30
0.0
 11
218.895
 21
20.668
 31
0.0
  0
MTEXT
  5
BC
330
1F
100
AcDbEntity
  8
TITLE_BLOCK
100
AcDbMText
 10
179.56056
 20
47.00272
 30
0.0
 40
1.2192
 41
14.93519999999998
 71
     1
 72
     1
  1
NAME
  7
ONSHAPE-STANDARD
  0
MTEXT
  5
BD
330
1F
100
AcDbEntity
  8
TITLE_BLOCK
100
AcDbMText
 10
214.1325
 20
47.00272
 30
0.0
 40
1.2192
 41
9.334500000000006
 71
     2
 72
     1
  1
DATE
  7
ONSHAPE-STANDARD
  0
MTEXT
  5
BE
330
1F
100
AcDbEntity
  8
TITLE_BLOCK
100
AcDbMText
 10
166.22556
 20
42.43072
 30
0.0
 40
1.2192
 41
13.06830000000001
 71
     1
 72
     1
  1
DRAWN
  7
ONSHAPE-STANDARD
  0
MTEXT
  5
BF
102
{ACAD_XDICTIONARY
360
C0
102
}
330
1F
100
AcDbEntity
  8
TITLE_BLOCK
100
AcDbMText
 10
186.51
 20
41.242
 30
0.0
 40
1.024128
 41
15.24000000000001
 71
     5
 72
     1
  1
May "redbigz"
  7
ONSHAPE-STANDARD-FIELDS
1001
ONSHAPE_NOTES_REORDERING_D
1071
        0
1070
     0
1001
ACAD
1000
ACAD_MTEXT_DEFINED_HEIGHT_BEGIN
1070
    46
1040
1.367364359673024
1000
ACAD_MTEXT_DEFINED_HEIGHT_END
  0
MTEXT
  5
C4
102
{ACAD_XDICTIONARY
360
C5
102
}
330
1F
100
AcDbEntity
  8
TITLE_BLOCK
100
AcDbMText
 10
214.1325
 20
41.242
 30
0.0
 40
1.024128
 41
9.525000000000006
 71
     5
 72
     1
  1
2026-03-31
  7
ONSHAPE-STANDARD-FIELDS
1001
ACAD
1000
ACAD_MTEXT_DEFINED_HEIGHT_BEGIN
1070
    46
1040
4.572000000000003
1000
ACAD_MTEXT_DEFINED_HEIGHT_END
  0
MTEXT
  5
CA
330
1F
100
AcDbEntity
  8
TITLE_BLOCK
100
AcDbMText
 10
166.22556
 20
37.85872
 30
0.0
 40
1.2192
 41
13.06830000000001
 71
     1
 72
     1
  1
CHECKED
  7
ONSHAPE-STANDARD
  0
MTEXT
  5
CB
330
1F
100
AcDbEntity
  8
TITLE_BLOCK
100
AcDbMText
 10
186.51
 20
36.67
 30
0.0
 40
1.024128
 41
15.23999999999998
 71
     5
 72
     1
  1
 
  7
ONSHAPE-STANDARD-FIELDS
1001
ACAD
1000
ACAD_MTEXT_DEFINED_HEIGHT_BEGIN
1070
    46
1040
4.571999999999996
1000
ACAD_MTEXT_DEFINED_HEIGHT_END
  0
MTEXT
  5
CC
330
1F
100
AcDbEntity
  8
TITLE_BLOCK
100
AcDbMText
 10
214.1325
 20
36.67
 30
0.0
 40
1.024128
 41
9.525000000000006
 71
     5
 72
     1
  1
 
  7
ONSHAPE-STANDARD-FIELDS
1001
ACAD
1000
ACAD_MTEXT_DEFINED_HEIGHT_BEGIN
1070
    46
1040
4.571999999999996
1000
ACAD_MTEXT_DEFINED_HEIGHT_END
  0
MTEXT
  5
CD
330
1F
100
AcDbEntity
  8
TITLE_BLOCK
100
AcDbMText
 10
166.22556
 20
33.28672
 30
0.0
 40
1.2192
 41
13.06830000000001
 71
     1
 72
     1
  1
APPROVED
  7
ONSHAPE-STANDARD
  0
MTEXT
  5
CE
102
{ACAD_XDICTIONARY
360
CF
102
}
330
1F
100
AcDbEntity
  8
TITLE_BLOCK
100
AcDbMText
 10
186.51
 20
32.098
 30
0.0
 40
1.024128
 41
15.24000000000001
 71
     5
 72
     1
  1
May "redbigz"
  7
ONSHAPE-STANDARD-FIELDS
1001
ONSHAPE_NOTES_REORDERING_D
1071
        0
1070
     0
1001
ACAD
1000
ACAD_MTEXT_DEFINED_HEIGHT_BEGIN
1070
    46
1040
1.367364359673024
1000
ACAD_MTEXT_DEFINED_HEIGHT_END
  0
MTEXT
  5
D0
102
{ACAD_XDICTIONARY
360
D1
102
}
330
1F
100
AcDbEntity
  8
TITLE_BLOCK
100
AcDbMText
 10
214.1325
 20
32.098
 30
0.0
 40
1.024128
 41
9.524999999999977
 71
     5
 72
     1
  1
2026-03-31
  7
ONSHAPE-STANDARD-FIELDS
1001
ONSHAPE_NOTES_REORDERING_D
1071
        0
1070
     0
1001
ACAD
1000
ACAD_MTEXT_DEFINED_HEIGHT_BEGIN
1070
    46
1040
1.038080697547684
1000
ACAD_MTEXT_DEFINED_HEIGHT_END
  0
MTEXT
  5
D2
330
1F
100
AcDbEntity
  8
TITLE_BLOCK
100
AcDbMText
 10
172.2225
 20
27.526
 30
0.0
 40
1.8288
 41
13.33500000000001
 71
     5
 72
     1
  1
 
  7
ONSHAPE-STANDARD-FIELDS
1001
ACAD
1000
ACAD_MTEXT_DEFINED_HEIGHT_BEGIN
1070
    46
1040
4.571999999999999
1000
ACAD_MTEXT_DEFINED_HEIGHT_END
  0
MTEXT
  5
D3
330
1F
100
AcDbEntity
  8
TITLE_BLOCK
100
AcDbMText
 10
186.51
 20
27.526
 30
0.0
 40
1.024128
 41
15.23999999999998
 71
     5
 72
     1
  1
 
  7
ONSHAPE-STANDARD-FIELDS
1001
ACAD
1000
ACAD_MTEXT_DEFINED_HEIGHT_BEGIN
1070
    46
1040
4.571999999999999
1000
ACAD_MTEXT_DEFINED_HEIGHT_END
  0
MTEXT
  5
D4
330
1F
100
AcDbEntity
  8
TITLE_BLOCK
100
AcDbMText
 10
214.1325
 20
27.526
 30
0.0
 40
1.024128
 41
9.525000000000006
 71
     5
 72
     1
  1
 
  7
ONSHAPE-STANDARD-FIELDS
1001
ACAD
1000
ACAD_MTEXT_DEFINED_HEIGHT_BEGIN
1070
    46
1040
4.571999999999999
1000
ACAD_MTEXT_DEFINED_HEIGHT_END
  0
MTEXT
  5
D5
330
1F
100
AcDbEntity
  8
TITLE_BLOCK
100
AcDbMText
 10
172.2225
 20
22.954
 30
0.0
 40
1.8288
 41
13.33500000000001
 71
     5
 72
     1
  1
 
  7
ONSHAPE-STANDARD-FIELDS
1001
ACAD
1000
ACAD_MTEXT_DEFINED_HEIGHT_BEGIN
1070
    46
1040
4.571999999999999
1000
ACAD_MTEXT_DEFINED_HEIGHT_END
  0
MTEXT
  5
D6
330
1F
100
AcDbEntity
  8
TITLE_BLOCK
100
AcDbMText
 10
186.51
 20
22.954
 30
0.0
 40
1.024128
 41
15.23999999999998
 71
     5
 72
     1
  1
 
  7
ONSHAPE-STANDARD-FIELDS
1001
ACAD
1000
ACAD_MTEXT_DEFINED_HEIGHT_BEGIN
1070
    46
1040
4.571999999999999
1000
ACAD_MTEXT_DEFINED_HEIGHT_END
  0
MTEXT
  5
D7
330
1F
100
AcDbEntity
  8
TITLE_BLOCK
100
AcDbMText
 10
214.1325
 20
22.954
 30
0.0
 40
1.024128
 41
9.525000000000006
 71
     5
 72
     1
  1
 
  7
ONSHAPE-STANDARD-FIELDS
1001
ACAD
1000
ACAD_MTEXT_DEFINED_HEIGHT_BEGIN
1070
    46
1040
4.571999999999999
1000
ACAD_MTEXT_DEFINED_HEIGHT_END
  0
MTEXT
  5
D8
330
1F
100
AcDbEntity
  8
TITLE_BLOCK
100
AcDbMText
 10
166.22556
 20
19.57072
 30
0.0
 40
1.2192
 41
26.13660000000002
 71
     1
 72
     1
  1
MATERIAL
  7
ONSHAPE-STANDARD
  0
MTEXT
  5
D9
102
{ACAD_XDICTIONARY
360
245
102
}
330
1F
100
AcDbEntity
  8
TITLE_BLOCK
100
AcDbMText
 10
178.89
 20
15.334
 30
0.0
 40
1.8288
 41
26.67000000000002
 71
     5
 72
     1
  1
Polyethylene 
  7
ONSHAPE-STANDARD-FIELDS
1001
ONSHAPE_NOTES_REORDERING_D
1071
        0
1070
     0
1001
ACAD
1000
ACAD_MTEXT_DEFINED_HEIGHT_BEGIN
1070
    46
1040
1.85371553133515
1000
ACAD_MTEXT_DEFINED_HEIGHT_END
  0
MTEXT
  5
DA
330
1F
100
AcDbEntity
  8
TITLE_BLOCK
100
AcDbMText
 10
192.89556
 20
19.57072
 30
0.0
 40
1.2192
 41
26.13659999999999
 71
     1
 72
     1
  1
FINISH
  7
ONSHAPE-STANDARD
  0
MTEXT
  5
DB
330
1F
100
AcDbEntity
  8
TITLE_BLOCK
100
AcDbMText
 10
205.56
 20
15.334
 30
0.0
 40
1.8288
 41
26.66999999999999
 71
     5
 72
     1
  1
 
  7
ONSHAPE-STANDARD-FIELDS
1001
ACAD
1000
ACAD_MTEXT_DEFINED_HEIGHT_BEGIN
1070
    46
1040
10.668
1000
ACAD_MTEXT_DEFINED_HEIGHT_END
  0
LINE
  5
DC
330
1F
100
AcDbEntity
  8
TITLE_BLOCK
100
AcDbLine
 10
218.895
 20
10.0
 30
0.0
 11
218.895
 21
48.09999999999999
 31
0.0
  0
LINE
  5
DD
330
1F
100
AcDbEntity
  8
TITLE_BLOCK
100
AcDbLine
 10
228.42
 20
14.953
 30
0.0
 11
228.42
 21
22.573
 31
0.0
  0
LINE
  5
DE
330
1F
100
AcDbEntity
  8
TITLE_BLOCK
100
AcDbLine
 10
235.659
 20
10.0
 30
0.0
 11
235.659
 21
14.953
 31
0.0
  0
LINE
  5
DF
330
1F
100
AcDbEntity
  8
TITLE_BLOCK
100
AcDbLine
 10
270.33
 20
10.0
 30
0.0
 11
270.33
 21
14.953
 31
0.0
  0
LINE
  5
E0
330
1F
100
AcDbEntity
  8
TITLE_BLOCK
100
AcDbLine
 10
289.38
 20
14.953
 30
0.0
 11
289.38
 21
22.573
 31
0.0
  0
LINE
  5
E1
330
1F
100
AcDbEntity
  8
TITLE_BLOCK
100
AcDbLine
 10
218.895
 20
14.953
 30
0.0
 11
297.0
 21
14.953
 31
0.0
  0
LINE
  5
E2
330
1F
100
AcDbEntity
  8
TITLE_BLOCK
100
AcDbLine
 10
218.895
 20
22.573
 30
0.0
 11
297.0
 21
22.573
 31
0.0
  0
LINE
  5
E3
330
1F
100
AcDbEntity
  8
TITLE_BLOCK
100
AcDbLine
 10
218.895
 20
38.575
 30
0.0
 11
297.0
 21
38.575
 31
0.0
  0
LINE
  5
E4
330
1F
100
AcDbEntity
  8
TITLE_BLOCK
100
AcDbLine
 10
218.895
 20
48.09999999999999
 30
0.0
 11
297.0
 21
48.09999999999999
 31
0.0
  0
MTEXT
  5
E5
330
1F
100
AcDbEntity
  8
TITLE_BLOCK
100
AcDbMText
 10
219.56556
 20
37.47772
 30
0.0
 40
1.2192
 41
9.334500000000006
 71
     1
 72
     1
  1
TITLE
  7
ONSHAPE-STANDARD
  0
MTEXT
  5
E6
102
{ACAD_XDICTIONARY
360
E7
102
}
330
1F
100
AcDbEntity
  8
TITLE_BLOCK
100
AcDbMText
 10
257.9475
 20
35.52699999999999
 30
0.0
 40
2.92608
 41
70.48500000000001
 71
     5
 72
     1
  1
Flute Cuts
  7
ONSHAPE-STANDARD-FIELDS
1001
ONSHAPE_NOTES_REORDERING_D
1071
        0
1070
     0
1001
ACAD
1000
ACAD_MTEXT_DEFINED_HEIGHT_BEGIN
1070
    46
1040
2.96594485013624
1000
ACAD_MTEXT_DEFINED_HEIGHT_END
  0
MTEXT
  5
E8
102
{ACAD_XDICTIONARY
360
E9
102
}
330
1F
100
AcDbEntity
  8
TITLE_BLOCK
100
AcDbMText
 10
257.9475
 20
30.7264
 30
0.0
 40
2.92608
 41
70.48500000000001
 71
     5
 72
     1
  1
900x600x3mm Stock
  7
ONSHAPE-STANDARD-FIELDS
1001
ONSHAPE_NOTES_REORDERING_D
1071
        0
1070
     0
1001
ACAD
1000
ACAD_MTEXT_DEFINED_HEIGHT_BEGIN
1070
    46
1040
2.96594485013624
1000
ACAD_MTEXT_DEFINED_HEIGHT_END
  0
MTEXT
  5
EA
330
1F
100
AcDbEntity
  8
TITLE_BLOCK
100
AcDbMText
 10
219.431448
 20
21.695176
 30
0.0
 40
0.9753599999999999
 41
9.334500000000006
 71
     1
 72
     1
  1
SIZE
  7
ONSHAPE-STANDARD
  0
MTEXT
  5
EB
102
{ACAD_XDICTIONARY
360
EC
102
}
330
1F
100
AcDbEntity
  8
TITLE_BLOCK
100
AcDbMText
 10
223.6575
 20
18.763
 30
0.0
 40
3.6576
 41
9.525000000000006
 71
     5
 72
     1
  1
A4
  7
ONSHAPE-STANDARD-FIELDS
1001
ACAD
1000
ACAD_MTEXT_DEFINED_HEIGHT_BEGIN
1070
    46
1040
7.620000000000001
1000
ACAD_MTEXT_DEFINED_HEIGHT_END
  0
MTEXT
  5
F1
330
1F
100
AcDbEntity
  8
TITLE_BLOCK
100
AcDbMText
 10
228.956448
 20
21.695176
 30
0.0
 40
0.9753599999999999
 41
59.74079999999998
 71
     1
 72
     1
  1
DWG NO.
  7
ONSHAPE-STANDARD
  0
MTEXT
  5
F2
102
{ACAD_XDICTIONARY
360
F3
102
}
330
1F
100
AcDbEntity
  8
TITLE_BLOCK
100
AcDbMText
 10
258.9
 20
18.763
 30
0.0
 40
3.6576
 41
60.95999999999998
 71
     5
 72
     1
  1
MORON-01-FLU
  7
ONSHAPE-STANDARD-FIELDS
1001
ONSHAPE_NOTES_REORDERING_D
1071
        0
1070
     0
1001
ACAD
1000
ACAD_MTEXT_DEFINED_HEIGHT_BEGIN
1070
    46
1040
3.707431062670299
1000
ACAD_MTEXT_DEFINED_HEIGHT_END
  0
MTEXT
  5
F4
330
1F
100
AcDbEntity
  8
TITLE_BLOCK
100
AcDbMText
 10
289.916448
 20
21.695176
 30
0.0
 40
0.9753599999999999
 41
7.467600000000004
 71
     1
 72
     1
  1
REV.
  7
ONSHAPE-STANDARD
  0
MTEXT
  5
F5
102
{ACAD_XDICTIONARY
360
F6
102
}
330
1F
100
AcDbEntity
  8
TITLE_BLOCK
100
AcDbMText
 10
293.571
 20
18.763
 30
0.0
 40
3.6576
 41
6.857999999999947
 71
     5
 72
     1
  1
1
  7
ONSHAPE-STANDARD-FIELDS
1001
ONSHAPE_NOTES_REORDERING_D
1071
        0
1070
     0
1001
ACAD
1000
ACAD_MTEXT_DEFINED_HEIGHT_BEGIN
1070
    46
1040
3.6576
1000
ACAD_MTEXT_DEFINED_HEIGHT_END
  0
MTEXT
  5
F7
330
1F
100
AcDbEntity
  8
TITLE_BLOCK
100
AcDbMText
 10
219.431448
 20
14.075176
 30
0.0
 40
0.9753599999999999
 41
16.42871999999998
 71
     1
 72
     1
  1
SCALE
  7
ONSHAPE-STANDARD
  0
MTEXT
  5
F8
102
{ACAD_XDICTIONARY
360
F9
102
}
330
1F
100
AcDbEntity
  8
TITLE_BLOCK
100
AcDbMText
 10
228.039
 20
12.4765
 30
0.0
 40
2.19456
 41
15.24000000000001
 71
     5
 72
     1
  1
1:6
  7
ONSHAPE-STANDARD-FIELDS
1001
ONSHAPE_NOTES_REORDERING_D
1071
        0
1070
     0
1001
ACAD
1000
ACAD_MTEXT_DEFINED_HEIGHT_BEGIN
1070
    46
1040
2.224458637602179
1000
ACAD_MTEXT_DEFINED_HEIGHT_END
  0
MTEXT
  5
FA
330
1F
100
AcDbEntity
  8
TITLE_BLOCK
100
AcDbMText
 10
236.195448
 20
14.075176
 30
0.0
 40
0.9753599999999999
 41
33.97757999999999
 71
     1
 72
     1
  1
WEIGHT
  7
ONSHAPE-STANDARD
  0
MTEXT
  5
FB
330
1F
100
AcDbEntity
  8
TITLE_BLOCK
100
AcDbMText
 10
252.9945
 20
12.4765
 30
0.0
 40
2.19456
 41
34.67099999999999
 71
     5
 72
     1
  1
 
  7
ONSHAPE-STANDARD-FIELDS
1001
ACAD
1000
ACAD_MTEXT_DEFINED_HEIGHT_BEGIN
1070
    46
1040
4.952999999999999
1000
ACAD_MTEXT_DEFINED_HEIGHT_END
  0
MTEXT
  5
FC
330
1F
100
AcDbEntity
  8
TITLE_BLOCK
100
AcDbMText
 10
270.866448
 20
14.075176
 30
0.0
 40
0.9753599999999999
 41
26.13660000000002
 71
     1
 72
     1
  1
SHEET
  7
ONSHAPE-STANDARD
  0
MTEXT
  5
FD
102
{ACAD_XDICTIONARY
360
FE
102
}
330
1F
100
AcDbEntity
  8
TITLE_BLOCK
100
AcDbMText
 10
284.427
 20
12.4765
 30
0.0
 40
2.19456
 41
25.14600000000002
 71
     5
 72
     1
  1
1 of 1
  7
ONSHAPE-STANDARD-FIELDS
1001
ACAD
1000
ACAD_MTEXT_DEFINED_HEIGHT_BEGIN
1070
    46
1040
4.952999999999999
1000
ACAD_MTEXT_DEFINED_HEIGHT_END
  0
MTEXT
  5
103
102
{ACAD_XDICTIONARY
360
104
102
}
330
1F
100
AcDbEntity
  8
ANNOTATION_TEXT
 62
     7
 60
     1
100
AcDbMText
 10
150.8711531544955
 20
64.91206500288452
 30
0.0
 40
3.5
 41
0.0
 71
     2
 72
     1
  1

  7
ONSHAPE-STANDARD-VIEW-LABE
1001
ACAD
1000
ACAD_MTEXT_DEFINED_HEIGHT_BEGIN
1070
    46
1040
3.5
1000
ACAD_MTEXT_DEFINED_HEIGHT_END
  0
DIMENSION
  5
10A
102
{ACAD_REACTORS
102
}
102
{ACAD_XDICTIONARY
360
10B
102
}
330
1F
100
AcDbEntity
  8
ANNOTATION_TEXT
100
AcDbDimension
  2
*D1
 10
232.4087588785475
 20
174.1620650028845
 30
0.0
 11
232.4087588785475
 21
124.1620650028845
 31
0.0
 70
   161
  3
ONSHAPE-ISO-25$0
100
AcDbAlignedDimension
 13
225.8711531544955
 23
74.16206500288453
 33
0.0
 14
225.8711531544956
 24
174.1620650028845
 34
0.0
1001
ACAD
1000
DSTYLE
1002
{
1070
     4
1000
[]
1070
   144
1040
6.0
1070
     3
1000

1070
   288
1070
     1
1002
}
1001
ACAD_DIMASSOC_CALC_DIMLFAC
1040
-6.0
1001
ACAD_DIMASSOC_DIMLFAC
1040
-6.0
1001
ACAD_DIMASSOC_OVERRIDDEN_D
1040
0.0
  0
DIMENSION
  5
126
102
{ACAD_REACTORS
102
}
102
{ACAD_XDICTIONARY
360
127
102
}
330
1F
100
AcDbEntity
  8
ANNOTATION_TEXT
100
AcDbDimension
  2
*D2
 10
75.87115315449556
 20
67.91293409759646
 30
0.0
 11
156.0706526499423
 21
67.91293409759646
 31
0.0
 70
   161
  3
ONSHAPE-ISO-25$0
100
AcDbAlignedDimension
 13
225.8711531544955
 23
74.16206500288453
 33
0.0
 14
75.87115315449556
 24
74.16206500288453
 34
0.0
1001
ACAD
1000
DSTYLE
1002
{
1070
     4
1000
[]
1070
   144
1040
6.0
1070
     3
1000

1070
   288
1070
     1
1002
}
1001
ACAD_DIMASSOC_CALC_DIMLFAC
1040
-6.0
1001
ACAD_DIMASSOC_DIMLFAC
1040
-6.0
1001
ACAD_DIMASSOC_OVERRIDDEN_D
1040
0.0
  0
DIMENSION
  5
139
102
{ACAD_REACTORS
330
151
102
}
102
{ACAD_XDICTIONARY
360
13A
102
}
330
1F
100
AcDbEntity
  8
ANNOTATION_TEXT
100
AcDbDimension
  2
*D3
 10
105.4304054251721
 20
127.4953983362178
 30
0.0
 11
105.4304054251721
 21
153.3140884388717
 31
0.0
 70
   161
  3
ONSHAPE-ISO-25$0
100
AcDbAlignedDimension
 13
109.2044864878289
 23
174.1620650028845
 33
0.0
 14
109.2044864878289
 24
127.4953983362178
 34
0.0
1001
ACAD
1000
DSTYLE
1002
{
1070
     4
1000
[]
1070
   144
1040
6.0
1070
     3
1000

1070
   288
1070
     1
1002
}
1001
ACAD_DIMASSOC_CALC_DIMLFAC
1040
-6.0
1001
ACAD_DIMASSOC_DIMLFAC
1040
-6.0
1001
ACAD_DIMASSOC_OVERRIDDEN_D
1040
0.0
  0
DIMENSION
  5
14C
102
{ACAD_REACTORS
102
}
102
{ACAD_XDICTIONARY
360
14D
102
}
330
1F
100
AcDbEntity
  8
ANNOTATION_TEXT
100
AcDbDimension
  2
*D4
 10
109.2044864878289
 20
130.5009401458823
 30
0.0
 11
92.53781982116223
 21
130.5009401458823
 31
0.0
 70
   161
  3
ONSHAPE-ISO-25$0
100
AcDbAlignedDimension
 13
75.87115315449556
 23
127.4953983362178
 33
0.0
 14
109.2044864878289
 24
127.4953983362178
 34
0.0
1001
ACAD
1000
DSTYLE
1002
{
1070
     4
1000
[]
1070
   144
1040
6.0
1070
     3
1000

1070
   288
1070
     1
1002
}
1001
ACAD_DIMASSOC_CALC_DIMLFAC
1040
-6.0
1001
ACAD_DIMASSOC_DIMLFAC
1040
-6.0
1001
ACAD_DIMASSOC_OVERRIDDEN_D
1040
0.0
  0
DIMENSION
  5
15F
102
{ACAD_REACTORS
330
177
102
}
102
{ACAD_XDICTIONARY
360
160
102
}
330
1F
100
AcDbEntity
  8
ANNOTATION_TEXT
100
AcDbDimension
  2
*D5
 10
162.9624762904291
 20
140.8287316695512
 30
0.0
 11
162.9624762904291
 21
156.9069497586425
 31
0.0
 70
   161
  3
ONSHAPE-ISO-25$0
100
AcDbAlignedDimension
 13
109.2044864878289
 23
174.1620650028845
 33
0.0
 14
109.2044864878289
 24
140.8287316695512
 34
0.0
1001
ACAD
1000
DSTYLE
1002
{
1070
     4
1000
[]
1070
   144
1040
6.0
1070
     3
1000

1070
   288
1070
     1
1002
}
1001
ACAD_DIMASSOC_CALC_DIMLFAC
1040
-6.0
1001
ACAD_DIMASSOC_DIMLFAC
1040
-6.0
1001
ACAD_DIMASSOC_OVERRIDDEN_D
1040
0.0
  0
DIMENSION
  5
172
102
{ACAD_REACTORS
330
19D
102
}
102
{ACAD_XDICTIONARY
360
173
102
}
330
1F
100
AcDbEntity
  8
ANNOTATION_TEXT
100
AcDbDimension
  2
*D6
 10
166.7044864878289
 20
144.9092443309283
 30
0.0
 11
136.9289992189458
 21
144.9092443309283
 31
0.0
 70
   161
  3
ONSHAPE-ISO-25$0
100
AcDbAlignedDimension
 13
109.2044864878289
 23
140.8287316695512
 33
0.0
 14
166.7044864878289
 24
140.8287316695512
 34
0.0
1001
ACAD
1000
DSTYLE
1002
{
1070
     4
1000
[]
1070
   144
1040
6.0
1070
     3
1000

1070
   288
1070
     1
1002
}
1001
ACAD_DIMASSOC_CALC_DIMLFAC
1040
-6.0
1001
ACAD_DIMASSOC_DIMLFAC
1040
-6.0
1001
ACAD_DIMASSOC_OVERRIDDEN_D
1040
0.0
  0
DIMENSION
  5
185
102
{ACAD_REACTORS
330
19D
102
}
102
{ACAD_XDICTIONARY
360
186
102
}
330
1F
100
AcDbEntity
  8
ANNOTATION_TEXT
100
AcDbDimension
  2
*D7
 10
220.6947466872937
 20
140.8287316695512
 30
0.0
 11
220.6947466872937
 21
156.9069497586425
 31
0.0
 70
   161
  3
ONSHAPE-ISO-25$0
100
AcDbAlignedDimension
 13
166.7044864878289
 23
174.1620650028845
 33
0.0
 14
166.7044864878289
 24
140.8287316695512
 34
0.0
1001
ACAD
1000
DSTYLE
1002
{
1070
     4
1000
[]
1070
   144
1040
6.0
1070
     3
1000

1070
   288
1070
     1
1002
}
1001
ACAD_DIMASSOC_CALC_DIMLFAC
1040
-6.0
1001
ACAD_DIMASSOC_DIMLFAC
1040
-6.0
1001
ACAD_DIMASSOC_OVERRIDDEN_D
1040
0.0
  0
DIMENSION
  5
198
102
{ACAD_REACTORS
102
}
102
{ACAD_XDICTIONARY
360
199
102
}
330
1F
100
AcDbEntity
  8
ANNOTATION_TEXT
100
AcDbDimension
  2
*D8
 10
223.3711531544956
 20
144.9092443309283
 30
0.0
 11
196.282767925323
 21
144.9092443309283
 31
0.0
 70
   161
  3
ONSHAPE-ISO-25$0
100
AcDbAlignedDimension
 13
166.7044864878289
 23
140.8287316695512
 33
0.0
 14
223.3711531544956
 24
140.8287316695512
 34
0.0
1001
ACAD
1000
DSTYLE
1002
{
1070
     4
1000
[]
1070
   144
1040
6.0
1070
     3
1000

1070
   288
1070
     1
1002
}
1001
ACAD_DIMASSOC_CALC_DIMLFAC
1040
-6.0
1001
ACAD_DIMASSOC_DIMLFAC
1040
-6.0
1001
ACAD_DIMASSOC_OVERRIDDEN_D
1040
0.0
  0
MTEXT
  5
1AF
102
{ACAD_XDICTIONARY
360
24C
102
}
330
1F
100
AcDbEntity
  8
ANNOTATION_TEXT
100
AcDbMText
 10
77.78039975860666
 20
172.5540136979796
 30
0.0
 40
2.9261
 41
20.99656143051771
 71
     1
 72
     5
  1
Electronics\PPanel
  7
ONSHAPE-STANDARD-NOTESTYLE
1001
ONSHAPE_NOTES_REORDERING_D
1071
        0
1070
     0
1001
ACAD
1000
ACAD_MTEXT_DEFINED_HEIGHT_BEGIN
1070
    46
1040
6.067471662125341
1000
ACAD_MTEXT_DEFINED_HEIGHT_END
  0
MTEXT
  5
1B6
102
{ACAD_REACTORS
330
164
102
}
102
{ACAD_XDICTIONARY
360
24E
102
}
330
1F
100
AcDbEntity
  8
ANNOTATION_TEXT
100
AcDbMText
 10
110.7606336652267
 20
172.1493482512726
 30
0.0
 40
2.9261
 41
20.99656143051772
 71
     1
 72
     5
  1
Back Panel
  7
ONSHAPE-STANDARD-NOTESTYLE
1001
ONSHAPE_NOTES_REORDERING_D
1071
        0
1070
     0
1001
ACAD
1000
ACAD_MTEXT_DEFINED_HEIGHT_BEGIN
1070
    46
1040
2.965965122615804
1000
ACAD_MTEXT_DEFINED_HEIGHT_END
  0
MTEXT
  5
1B7
102
{ACAD_REACTORS
330
18A
102
}
102
{ACAD_XDICTIONARY
360
250
102
}
330
1F
100
AcDbEntity
  8
ANNOTATION_TEXT
100
AcDbMText
 10
168.5603483032092
 20
172.1493482512726
 30
0.0
 40
2.9261
 41
26.05385088555858
 71
     1
 72
     5
  1
Bottom Panel
  7
ONSHAPE-STANDARD-NOTESTYLE
1001
ONSHAPE_NOTES_REORDERING_D
1071
        0
1070
     0
1001
ACAD
1000
ACAD_MTEXT_DEFINED_HEIGHT_BEGIN
1070
    46
1040
2.965965122615804
1000
ACAD_MTEXT_DEFINED_HEIGHT_END
  0
ENDSEC
  0
SECTION
  2
OBJECTS
  0
DICTIONARY
  5
C
330
0
100
AcDbDictionary
  3
ACAD_FIELDLIST
350
109
  3
ACAD_GROUP
350
D
  3
ACAD_LAYOUT
350
1A
  3
ACAD_MATERIAL
350
43
  3
ACAD_MLEADERSTYLE
350
6B
  3
ACAD_MLINESTYLE
350
17
  3
ACAD_PLOTSETTINGS
350
19
  3
ACAD_SCALELIST
350
47
  3
ACAD_VISUALSTYLE
350
2A
  3
ACDB_RECOMPOSE_DATA
350
25D
  3
ACDBHEADERROUNDTRIPXREC
350
21A
  3
ACDBVARIABLEDICTIONARY
350
6E
  3
DWGPROPS
350
241
  3
ONSHAPE_DATA
350
1B8
  0
DICTIONARY
  5
252
330
8
100
AcDbDictionary
280
     1
  3
ACAD_XREC_ROUNDTRIP
360
253
  0
DICTIONARY
  5
C0
330
BF
100
AcDbDictionary
280
     1
  3
ACAD_MTEXT_RT
360
242
  0
DICTIONARY
  5
C5
330
C4
100
AcDbDictionary
280
     1
  0
DICTIONARY
  5
CF
330
CE
100
AcDbDictionary
280
     1
  3
ACAD_MTEXT_RT
360
243
  0
DICTIONARY
  5
D1
330
D0
100
AcDbDictionary
280
     1
  3
ACAD_MTEXT_RT
360
244
  0
DICTIONARY
  5
245
330
D9
100
AcDbDictionary
280
     1
  3
ACAD_MTEXT_RT
360
246
  0
DICTIONARY
  5
E7
330
E6
100
AcDbDictionary
280
     1
  3
ACAD_MTEXT_RT
360
247
  0
DICTIONARY
  5
E9
330
E8
100
AcDbDictionary
280
     1
  3
ACAD_MTEXT_RT
360
248
  0
DICTIONARY
  5
EC
330
EB
100
AcDbDictionary
280
     1
  0
DICTIONARY
  5
F3
330
F2
100
AcDbDictionary
280
     1
  3
ACAD_MTEXT_RT
360
249
  0
DICTIONARY
  5
F6
330
F5
100
AcDbDictionary
280
     1
  3
ACAD_MTEXT_RT
360
24A
  0
DICTIONARY
  5
F9
330
F8
100
AcDbDictionary
280
     1
  3
ACAD_MTEXT_RT
360
24B
  0
DICTIONARY
  5
FE
330
FD
100
AcDbDictionary
280
     1
  0
DICTIONARY
  5
104
330
103
100
AcDbDictionary
280
     1
  3
ONSHAPE_VIEW_ID
360
105
  0
DICTIONARY
  5
10B
330
10A
100
AcDbDictionary
280
     1
  3
ACAD_BREAKDATA
360
10F
  3
OS_DIM_DISPLAY_FLAG_DATA
360
10C
  0
DICTIONARY
  5
127
330
126
100
AcDbDictionary
280
     1
  3
ACAD_BREAKDATA
360
12B
  3
OS_DIM_DISPLAY_FLAG_DATA
360
128
  0
DICTIONARY
  5
13A
330
139
100
AcDbDictionary
280
     1
  3
ACAD_BREAKDATA
360
13E
  3
OS_DIM_DISPLAY_FLAG_DATA
360
13B
  0
DICTIONARY
  5
14D
330
14C
100
AcDbDictionary
280
     1
  3
ACAD_BREAKDATA
360
151
  3
OS_DIM_DISPLAY_FLAG_DATA
360
14E
  0
DICTIONARY
  5
160
330
15F
100
AcDbDictionary
280
     1
  3
ACAD_BREAKDATA
360
164
  3
OS_DIM_DISPLAY_FLAG_DATA
360
161
  0
DICTIONARY
  5
173
330
172
100
AcDbDictionary
280
     1
  3
ACAD_BREAKDATA
360
177
  3
OS_DIM_DISPLAY_FLAG_DATA
360
174
  0
DICTIONARY
  5
186
330
185
100
AcDbDictionary
280
     1
  3
ACAD_BREAKDATA
360
18A
  3
OS_DIM_DISPLAY_FLAG_DATA
360
187
  0
DICTIONARY
  5
199
330
198
100
AcDbDictionary
280
     1
  3
ACAD_BREAKDATA
360
19D
  3
OS_DIM_DISPLAY_FLAG_DATA
360
19A
  0
DICTIONARY
  5
24C
330
1AF
100
AcDbDictionary
280
     1
  3
ACAD_MTEXT_RT
360
24D
  0
DICTIONARY
  5
24E
330
1B6
100
AcDbDictionary
280
     1
  3
ACAD_MTEXT_RT
360
24F
  0
DICTIONARY
  5
250
330
1B7
100
AcDbDictionary
280
     1
  3
ACAD_MTEXT_RT
360
251
  0
ACAD_PROXY_OBJECT
  5
109
102
{ACAD_REACTORS
330
C
102
}
330
C
100
AcDbProxyObject
 90
      499
 91
      509
 93
       11
310
4180
330
C8
330
C9
330
EF
330
F0
330
101
330
102
 94
        0
  0
DICTIONARY
  5
D
102
{ACAD_REACTORS
330
C
102
}
330
C
100
AcDbDictionary
  0
DICTIONARY
  5
1A
102
{ACAD_REACTORS
330
C
102
}
330
C
100
AcDbDictionary
  0
DICTIONARY
  5
43
102
{ACAD_REACTORS
330
C
102
}
330
C
100
AcDbDictionary
  3
BYBLOCK
350
45
  3
BYLAYER
350
44
  3
GLOBAL
350
46
  0
DICTIONARY
  5
6B
102
{ACAD_REACTORS
330
C
102
}
330
C
100
AcDbDictionary
  3
STANDARD
350
6C
  0
DICTIONARY
  5
17
102
{ACAD_REACTORS
330
C
102
}
330
C
100
AcDbDictionary
  3
STANDARD
350
18
  0
DICTIONARY
  5
19
102
{ACAD_REACTORS
330
C
102
}
330
C
100
AcDbDictionary
  0
DICTIONARY
  5
47
102
{ACAD_REACTORS
330
C
102
}
330
C
100
AcDbDictionary
  3
A0
350
48
  3
A1
350
49
  3
A2
350
4A
  3
A3
350
4B
  3
A4
350
4C
  3
A5
350
4D
  3
A6
350
4E
  3
A7
350
4F
  3
A8
350
50
  3
A9
350
51
  3
B0
350
52
  3
B1
350
53
  3
B2
350
54
  3
B3
350
55
  3
B4
350
56
  3
B5
350
57
  3
B6
350
58
  3
B7
350
59
  3
B8
350
5A
  3
B9
350
5B
  3
C0
350
5C
  3
C1
350
5D
  3
C2
350
5E
  3
C3
350
5F
  3
C4
350
60
  3
C5
350
61
  3
C6
350
62
  3
C7
350
63
  3
C8
350
64
  3
C9
350
65
  3
D0
350
66
  3
D1
350
67
  3
D2
350
68
  0
DICTIONARY
  5
2A
102
{ACAD_REACTORS
330
C
102
}
330
C
100
AcDbDictionary
  3
2DWIREFRAME
350
2F
  3
BASIC
350
32
  3
BRIGHTEN
350
36
  3
COLORCHANGE
350
3A
  3
CONCEPTUAL
350
34
  3
DIM
350
35
  3
EDGECOLOROFF
350
3D
  3
FACEPATTERN
350
39
  3
FLAT
350
2B
  3
FLATWITHEDGES
350
2C
  3
GOURAUD
350
2D
  3
GOURAUDWITHEDGES
350
2E
  3
HIDDEN
350
31
  3
JITTEROFF
350
3B
  3
LINEPATTERN
350
38
  3
OVERHANGOFF
350
3C
  3
REALISTIC
350
33
  3
SHADED
350
42
  3
SHADED_WITH_EDGES
350
41
  3
SHADES_OF_GRAY
350
3E
  3
SKETCHY
350
3F
  3
THICKEN
350
37
  3
WIREFRAME
350
30
  3
X-RAY
350
40
  0
XRECORD
  5
25D
102
{ACAD_REACTORS
330
C
102
}
330
C
100
AcDbXrecord
 90
        1
330
BF
330
CE
330
D0
330
D9
330
E6
330
E8
330
F2
330
F5
330
F8
330
1B7
330
1B6
330
1AF
  0
DICTIONARY
  5
21A
102
{ACAD_REACTORS
330
C
102
}
330
C
100
AcDbDictionary
  3
CEPSNID
350
224
  3
CEPSNTYPE
350
223
  3
DIMSTYLEDATA
350
23A
  3
FINGERPRINTGUID
350
225
  3
HYPERLINKBASE
350
21D
  3
INSUNITS
350
222
  3
LAYOUTDICT
350
21F
  3
LWETCUNION
350
221
  3
PLOTSETDICT
350
220
  3
PSVPSCALE
350
227
  3
PUCSBASE
350
22A
  3
PUCSORGBACK
350
230
  3
PUCSORGBOTTOM
350
22C
  3
PUCSORGFRONT
350
22F
  3
PUCSORGLEFT
350
22D
  3
PUCSORGRIGHT
350
22E
  3
PUCSORGTOP
350
22B
  3
PUCSORTHOREF
350
228
  3
PUCSORTHOVIEW
350
229
  3
STYLESHEET
350
21E
  3
TSTACKALIGN
350
21B
  3
TSTACKSIZE
350
21C
  3
UCSBASE
350
233
  3
UCSORGBACK
350
239
  3
UCSORGBOTTOM
350
235
  3
UCSORGFRONT
350
238
  3
UCSORGLEFT
350
236
  3
UCSORGRIGHT
350
237
  3
UCSORGTOP
350
234
  3
UCSORTHOREF
350
231
  3
UCSORTHOVIEW
350
232
  3
VERSIONGUID
350
226
  0
DICTIONARY
  5
6E
102
{ACAD_REACTORS
330
C
102
}
330
C
100
AcDbDictionary
  3
CANNOSCALE
350
254
  3
CMLEADERSTYLE
350
23C
  3
CTABLESTYLE
350
23B
  3
DIMASSOC
350
23F
  3
HIDETEXT
350
240
  3
MSLTSCALE
350
255
  3
OLEFRAME
350
6F
  0
XRECORD
  5
241
102
{ACAD_REACTORS
330
C
102
}
330
C
100
AcDbXrecord
  1
DWGPROPS COOKIE
  2

  3

  4

  6

  7

  8
nobody
  9

300
=
301
=
302
=
303
=
304
=
305
=
306
=
307
=
308
=
309
=
 40
0.0
 41
2461131.385892176
 42
2461131.385892685
  1

 90
        0
  0
DICTIONARY
  5
1B8
102
{ACAD_REACTORS
330
C
102
}
330
C
100
AcDbDictionary
280
     1
  3
DIM_UNITS
360
1B9
  3
ONSHAPE_ANG_TOL_PRECISION
360
1BC
  3
ONSHAPE_BREAK_DIMENSION_DEFAULT
360
1C2
  3
ONSHAPE_DIMENSION_TEXT_HOR
360
1C1
  3
ONSHAPE_FITCLASS_TOL_PRECISION
360
1BD
  3
ONSHAPE_JOGDIMENSION_LOCK_
360
1BF
  3
ONSHAPE_SHOWDIMENSIONSLINE
360
1C0
  3
ONSHAPE_UNDERLINEOVERRIDEN
360
1BE
  3
ONSHAPE_VSHARP_EXTENSION
360
1BB
  3
ONSHAPE_WELD_STANDARD
360
1BA
  0
XRECORD
  5
253
102
{ACAD_REACTORS
330
252
102
}
330
252
100
AcDbXrecord
102
VTR_0.000_0.000_1.000_1.000_VISUALSTYLE
340
2F
102
VTR_0.000_0.000_1.000_1.000_GRIDDISPLAY
 70
     3
102
VTR_0.000_0.000_1.000_1.000_GRIDMAJOR
 70
     5
102
VTR_0.000_0.000_1.000_1.000_DEFAULTLIGHTING
280
     1
102
VTR_0.000_0.000_1.000_1.000_DEFAULTLIGHTINGTYPE
 70
     1
102
VTR_0.000_0.000_1.000_1.000_BRIGHTNESS
141
0.0
102
VTR_0.000_0.000_1.000_1.000_CONTRAST
142
0.0
  0
XRECORD
  5
242
102
{ACAD_REACTORS
330
C0
102
}
330
C0
100
AcDbXrecord
 40
8094.0
  1
{\pxqc;May "redbigz"}
  0
XRECORD
  5
243
102
{ACAD_REACTORS
330
CF
102
}
330
CF
100
AcDbXrecord
 40
8094.0
  1
{\pxqc;May "redbigz"}
  0
XRECORD
  5
244
102
{ACAD_REACTORS
330
D1
102
}
330
D1
100
AcDbXrecord
 40
2691.0
  1
{\pxqc;2026-03-31}
  0
XRECORD
  5
246
102
{ACAD_REACTORS
330
245
102
}
330
245
100
AcDbXrecord
 40
8827.0
  1
{\pxqc;Polyethylene }
  0
XRECORD
  5
247
102
{ACAD_REACTORS
330
E7
102
}
330
E7
100
AcDbXrecord
 40
5397.0
  1
{\pxqc;Flute Cuts}
  0
XRECORD
  5
248
102
{ACAD_REACTORS
330
E9
102
}
330
E9
100
AcDbXrecord
 40
13534.0
  1
{\pxqc;900x600x3mm Stock}
  0
XRECORD
  5
249
102
{ACAD_REACTORS
330
F3
102
}
330
F3
100
AcDbXrecord
 40
5146.0
  1
{\pxqc;MORON-01-FLU}
  0
XRECORD
  5
24A
102
{ACAD_REACTORS
330
F6
102
}
330
F6
100
AcDbXrecord
 40
49.0
  1
{\pxqc;1}
  0
XRECORD
  5
24B
102
{ACAD_REACTORS
330
F9
102
}
330
F9
100
AcDbXrecord
 40
327.0
  1
{\pxqc;1:6}
  0
XRECORD
  5
105
102
{ACAD_REACTORS
330
104
102
}
330
104
100
AcDbXrecord
330
0
  0
BREAKDATA
  5
10F
102
{ACAD_REACTORS
330
10B
102
}
330
10B
100
AcDbBreakData
 70
     0
330
10A
 90
        0
  0
XRECORD
  5
10C
102
{ACAD_REACTORS
330
10B
102
}
330
10B
100
AcDbXrecord
 90
        1
 90
        0
  0
BREAKDATA
  5
12B
102
{ACAD_REACTORS
330
127
102
}
330
127
100
AcDbBreakData
 70
     0
330
126
 90
        0
  0
XRECORD
  5
128
102
{ACAD_REACTORS
330
127
102
}
330
127
100
AcDbXrecord
 90
        1
 90
        0
  0
BREAKDATA
  5
13E
102
{ACAD_REACTORS
330
13A
102
}
330
13A
100
AcDbBreakData
 70
     0
330
139
 90
        0
  0
XRECORD
  5
13B
102
{ACAD_REACTORS
330
13A
102
}
330
13A
100
AcDbXrecord
 90
        1
 90
        0
  0
BREAKDATA
  5
151
102
{ACAD_REACTORS
330
14D
102
}
330
14D
100
AcDbBreakData
 70
     0
330
14C
 90
        1
100
AcDbBreakPointRef
 71
     0
 72
     0
 91
       -1
 10
0.0
 20
0.0
 30
0.0
 11
0.0
 21
0.0
 31
0.0
331
139
 73
     5
 92
        0
  0
XRECORD
  5
14E
102
{ACAD_REACTORS
330
14D
102
}
330
14D
100
AcDbXrecord
 90
        1
 90
        0
  0
BREAKDATA
  5
164
102
{ACAD_REACTORS
330
160
102
}
330
160
100
AcDbBreakData
 70
     0
330
15F
 90
        1
100
AcDbBreakPointRef
 71
     0
 72
     0
 91
       -1
 10
0.0
 20
0.0
 30
0.0
 11
0.0
 21
0.0
 31
0.0
331
1B6
 73
     5
 92
        0
  0
XRECORD
  5
161
102
{ACAD_REACTORS
330
160
102
}
330
160
100
AcDbXrecord
 90
        1
 90
        0
  0
BREAKDATA
  5
177
102
{ACAD_REACTORS
330
173
102
}
330
173
100
AcDbBreakData
 70
     0
330
172
 90
        1
100
AcDbBreakPointRef
 71
     0
 72
     0
 91
       -1
 10
0.0
 20
0.0
 30
0.0
 11
0.0
 21
0.0
 31
0.0
331
15F
 73
     5
 92
        0
  0
XRECORD
  5
174
102
{ACAD_REACTORS
330
173
102
}
330
173
100
AcDbXrecord
 90
        1
 90
        0
  0
BREAKDATA
  5
18A
102
{ACAD_REACTORS
330
186
102
}
330
186
100
AcDbBreakData
 70
     0
330
185
 90
        1
100
AcDbBreakPointRef
 71
     0
 72
     0
 91
       -1
 10
0.0
 20
0.0
 30
0.0
 11
0.0
 21
0.0
 31
0.0
331
1B7
 73
     5
 92
        0
  0
XRECORD
  5
187
102
{ACAD_REACTORS
330
186
102
}
330
186
100
AcDbXrecord
 90
        1
 90
        0
  0
BREAKDATA
  5
19D
102
{ACAD_REACTORS
330
199
102
}
330
199
100
AcDbBreakData
 70
     0
330
198
 90
        2
100
AcDbBreakPointRef
 71
     0
 72
     0
 91
       -1
 10
0.0
 20
0.0
 30
0.0
 11
0.0
 21
0.0
 31
0.0
331
172
 73
     5
 92
        0
100
AcDbBreakPointRef
 71
     0
 72
     0
 91
       -1
 10
0.0
 20
0.0
 30
0.0
 11
0.0
 21
0.0
 31
0.0
331
185
 73
     5
 92
        0
  0
XRECORD
  5
19A
102
{ACAD_REACTORS
330
199
102
}
330
199
100
AcDbXrecord
 90
        1
 90
        0
  0
XRECORD
  5
24D
102
{ACAD_REACTORS
330
24C
102
}
330
24C
100
AcDbXrecord
 40
17245.0
  1
{\pxql;Electronics\PPanel}
  0
XRECORD
  5
24F
102
{ACAD_REACTORS
330
24E
102
}
330
24E
100
AcDbXrecord
 40
5173.0
  1
{\pxql;Back Panel}
  0
XRECORD
  5
251
102
{ACAD_REACTORS
330
250
102
}
330
250
100
AcDbXrecord
 40
7553.0
  1
{\pxql;Bottom Panel}
  0
MATERIAL
  5
45
102
{ACAD_REACTORS
330
43
102
}
102
{ACAD_XDICTIONARY
360
258
102
}
330
43
100
AcDbMaterial
  1
BYBLOCK
  0
MATERIAL
  5
44
102
{ACAD_REACTORS
330
43
102
}
102
{ACAD_XDICTIONARY
360
256
102
}
330
43
100
AcDbMaterial
  1
BYLAYER
  0
MATERIAL
  5
46
102
{ACAD_REACTORS
330
43
102
}
102
{ACAD_XDICTIONARY
360
25A
102
}
330
43
100
AcDbMaterial
  1
GLOBAL
  0
ACAD_PROXY_OBJECT
  5
6C
102
{ACAD_REACTORS
330
6B
102
}
330
6B
100
AcDbProxyObject
 90
      499
 91
      505
 93
      610
310
40901902A4063FBFFFFFE056BD1B81E855B9FC0AD7A3703D0AD73F4214DD185B99185C9900AD7A3703D0AC73F90140501A02B5E8DC0F42B1CFC02B5E8DC0F42B1CFE5764000000000000300FC0
340
14
340
0
340
11
340
0
 94
        0
1001
ACAD_MLEADERVER
1070
     2
  0
MLINESTYLE
  5
18
102
{ACAD_REACTORS
330
17
102
}
330
17
100
AcDbMlineStyle
  2
Standard
 70
     0
  3

 62
   256
 51
90.0
 52
90.0
 71
     2
 49
0.5
 62
   256
  6
BYLAYER
 49
-0.5
 62
   256
  6
BYLAYER
  0
ACAD_PROXY_OBJECT
  5
48
102
{ACAD_REACTORS
330
47
102
}
330
47
100
AcDbProxyObject
 90
      499
 91
      503
 93
       41
310
903313A31580
  0
ACAD_PROXY_OBJECT
  5
49
102
{ACAD_REACTORS
330
47
102
}
330
47
100
AcDbProxyObject
 90
      499
 91
      503
 93
      105
310
903313A324000000000000004000
  0
ACAD_PROXY_OBJECT
  5
4A
102
{ACAD_REACTORS
330
47
102
}
330
47
100
AcDbProxyObject
 90
      499
 91
      503
 93
      105
310
903313A344000000000000104000
  0
ACAD_PROXY_OBJECT
  5
4B
102
{ACAD_REACTORS
330
47
102
}
330
47
100
AcDbProxyObject
 90
      499
 91
      503
 93
      105
310
903313A354000000000000144000
  0
ACAD_PROXY_OBJECT
  5
4C
102
{ACAD_REACTORS
330
47
102
}
330
47
100
AcDbProxyObject
 90
      499
 91
      503
 93
      105
310
903313A384000000000000204000
  0
ACAD_PROXY_OBJECT
  5
4D
102
{ACAD_REACTORS
330
47
102
}
330
47
100
AcDbProxyObject
 90
      499
 91
      503
 93
      113
310
904313A31304000000000000244000
  0
ACAD_PROXY_OBJECT
  5
4E
102
{ACAD_REACTORS
330
47
102
}
330
47
100
AcDbProxyObject
 90
      499
 91
      503
 93
      113
310
904313A31364000000000000304000
  0
ACAD_PROXY_OBJECT
  5
4F
102
{ACAD_REACTORS
330
47
102
}
330
47
100
AcDbProxyObject
 90
      499
 91
      503
 93
      113
310
904313A32304000000000000344000
  0
ACAD_PROXY_OBJECT
  5
50
102
{ACAD_REACTORS
330
47
102
}
330
47
100
AcDbProxyObject
 90
      499
 91
      503
 93
      113
310
904313A333040000000000003E4000
  0
ACAD_PROXY_OBJECT
  5
51
102
{ACAD_REACTORS
330
47
102
}
330
47
100
AcDbProxyObject
 90
      499
 91
      503
 93
      113
310
904313A34304000000000000444000
  0
ACAD_PROXY_OBJECT
  5
52
102
{ACAD_REACTORS
330
47
102
}
330
47
100
AcDbProxyObject
 90
      499
 91
      503
 93
      113
310
904313A35304000000000000494000
  0
ACAD_PROXY_OBJECT
  5
53
102
{ACAD_REACTORS
330
47
102
}
330
47
100
AcDbProxyObject
 90
      499
 91
      503
 93
      121
310
905313A3130304000000000000594000
  0
ACAD_PROXY_OBJECT
  5
54
102
{ACAD_REACTORS
330
47
102
}
330
47
100
AcDbProxyObject
 90
      499
 91
      503
 93
      105
310
903323A310000000000000010100
  0
ACAD_PROXY_OBJECT
  5
55
102
{ACAD_REACTORS
330
47
102
}
330
47
100
AcDbProxyObject
 90
      499
 91
      503
 93
      105
310
903343A310000000000000410100
  0
ACAD_PROXY_OBJECT
  5
56
102
{ACAD_REACTORS
330
47
102
}
330
47
100
AcDbProxyObject
 90
      499
 91
      503
 93
      105
310
903383A310000000000000810100
  0
ACAD_PROXY_OBJECT
  5
57
102
{ACAD_REACTORS
330
47
102
}
330
47
100
AcDbProxyObject
 90
      499
 91
      503
 93
      113
310
90431303A310000000000000910100
  0
ACAD_PROXY_OBJECT
  5
58
102
{ACAD_REACTORS
330
47
102
}
330
47
100
AcDbProxyObject
 90
      499
 91
      503
 93
      121
310
9053130303A310000000000001650100
  0
ACAD_PROXY_OBJECT
  5
59
102
{ACAD_REACTORS
330
47
102
}
330
47
100
AcDbProxyObject
 90
      499
 91
      503
 93
      257
310
90E312F31323822203D2031272D3022000000000000200FC000000000000284000
  0
ACAD_PROXY_OBJECT
  5
5A
102
{ACAD_REACTORS
330
47
102
}
330
47
100
AcDbProxyObject
 90
      499
 91
      503
 93
      249
310
90D312F363422203D2031272D3022000000000000240FC000000000000284000
  0
ACAD_PROXY_OBJECT
  5
5B
102
{ACAD_REACTORS
330
47
102
}
330
47
100
AcDbProxyObject
 90
      499
 91
      503
 93
      249
310
90D312F333222203D2031272D3022000000000000280FC000000000000284000
  0
ACAD_PROXY_OBJECT
  5
5C
102
{ACAD_REACTORS
330
47
102
}
330
47
100
AcDbProxyObject
 90
      499
 91
      503
 93
      249
310
90D312F313622203D2031272D30220000000000002C0FC000000000000284000
  0
ACAD_PROXY_OBJECT
  5
5D
102
{ACAD_REACTORS
330
47
102
}
330
47
100
AcDbProxyObject
 90
      499
 91
      503
 93
      249
310
90D332F333222203D2031272D30220000000000002E0FC000000000000284000
  0
ACAD_PROXY_OBJECT
  5
5E
102
{ACAD_REACTORS
330
47
102
}
330
47
100
AcDbProxyObject
 90
      499
 91
      503
 93
      241
310
90C312F3822203D2031272D3022000000000000300FC000000000000284000
  0
ACAD_PROXY_OBJECT
  5
5F
102
{ACAD_REACTORS
330
47
102
}
330
47
100
AcDbProxyObject
 90
      499
 91
      503
 93
      249
310
90D332F313622203D2031272D3022000000000000320FC000000000000284000
  0
ACAD_PROXY_OBJECT
  5
60
102
{ACAD_REACTORS
330
47
102
}
330
47
100
AcDbProxyObject
 90
      499
 91
      503
 93
      241
310
90C312F3422203D2031272D3022000000000000340FC000000000000284000
  0
ACAD_PROXY_OBJECT
  5
61
102
{ACAD_REACTORS
330
47
102
}
330
47
100
AcDbProxyObject
 90
      499
 91
      503
 93
      241
310
90C332F3822203D2031272D3022000000000000360FC000000000000284000
  0
ACAD_PROXY_OBJECT
  5
62
102
{ACAD_REACTORS
330
47
102
}
330
47
100
AcDbProxyObject
 90
      499
 91
      503
 93
      241
310
90C312F3222203D2031272D3022000000000000380FC000000000000284000
  0
ACAD_PROXY_OBJECT
  5
63
102
{ACAD_REACTORS
330
47
102
}
330
47
100
AcDbProxyObject
 90
      499
 91
      503
 93
      241
310
90C332F3422203D2031272D30220000000000003A0FC000000000000284000
  0
ACAD_PROXY_OBJECT
  5
64
102
{ACAD_REACTORS
330
47
102
}
330
47
100
AcDbProxyObject
 90
      499
 91
      503
 93
      161
310
90A3122203D2031272D30224000000000000284000
  0
ACAD_PROXY_OBJECT
  5
65
102
{ACAD_REACTORS
330
47
102
}
330
47
100
AcDbProxyObject
 90
      499
 91
      503
 93
      257
310
90E312D312F3222203D2031272D30220000000000003E0FC000000000000284000
  0
ACAD_PROXY_OBJECT
  5
66
102
{ACAD_REACTORS
330
47
102
}
330
47
100
AcDbProxyObject
 90
      499
 91
      503
 93
      225
310
90A3322203D2031272D302200000000000002100000000000000284000
  0
ACAD_PROXY_OBJECT
  5
67
102
{ACAD_REACTORS
330
47
102
}
330
47
100
AcDbProxyObject
 90
      499
 91
      503
 93
      225
310
90A3622203D2031272D302200000000000006100000000000000284000
  0
ACAD_PROXY_OBJECT
  5
68
102
{ACAD_REACTORS
330
47
102
}
330
47
100
AcDbProxyObject
 90
      499
 91
      503
 93
      249
310
90D31272D3022203D2031272D30220000000000000A100000000000000284000
  0
ACAD_PROXY_OBJECT
  5
2F
102
{ACAD_REACTORS
330
2A
102
}
330
2A
100
AcDbProxyObject
 90
      499
 91
      501
 93
      436
310
42CC9915DA5C99599C985B595049028333333333333E33F0000000000000F90107901411070040501600405405064090741402480A0340
1001
ACAD
1000
AcDbSavedByObjectVersion
1070
     0
  0
ACAD_PROXY_OBJECT
  5
32
102
{ACAD_REACTORS
330
2A
102
}
330
2A
100
AcDbProxyObject
 90
      499
 91
      501
 93
      388
310
4150985CDA58D07406404333333333333E33F0000000000000F90107A41107004050150841D405064090741402480A0350
1001
ACAD
1000
AcDbSavedByObjectVersion
1070
     0
  0
ACAD_PROXY_OBJECT
  5
36
102
{ACAD_REACTORS
330
2A
102
}
330
2A
100
AcDbProxyObject
 90
      499
 91
      501
 93
      428
310
42109C9A59DA1D195B90C409028333333333333E33F0000000000000F9010790141107004050150841D405064090741402480A029950
1001
ACAD
1000
AcDbSavedByObjectVersion
1070
     0
  0
ACAD_PROXY_OBJECT
  5
3A
102
{ACAD_REACTORS
330
2A
102
}
330
2A
100
AcDbProxyObject
 90
      499
 91
      501
 93
      452
310
42D0DBDB1BDC90DA185B99D95104090240C333333333333E33F0000000000000F90108901411070040501508421405064090741402480A0350
1001
ACAD
1000
AcDbSavedByObjectVersion
1070
     0
  0
ACAD_PROXY_OBJECT
  5
34
102
{ACAD_REACTORS
330
2A
102
}
330
2A
100
AcDbProxyObject
 90
      499
 91
      501
 93
      500
310
4290DBDB98D95C1D1D585B10940D028333333333333E33F0000000000000F90107902409070040501000000000018199010841D405064090740C02480A0340
1001
ACAD
1000
AcDbSavedByObjectVersion
1070
     0
  0
ACAD_PROXY_OBJECT
  5
35
102
{ACAD_REACTORS
330
2A
102
}
330
2A
100
AcDbProxyObject
 90
      499
 91
      501
 93
      412
310
40D11A5B50B409028333333333333E33F0000000000000F9010790141107004050150841D405064090741402480A02677FFFFFD0
1001
ACAD
1000
AcDbSavedByObjectVersion
1070
     0
  0
ACAD_PROXY_OBJECT
  5
3D
102
{ACAD_REACTORS
330
2A
102
}
330
2A
100
AcDbProxyObject
 90
      499
 91
      501
 93
      452
310
43115919D950DBDB1BDC93D999916409028333333333333E33F0000000000000F9010790141107004050150841D405064090741402480A0350
1001
ACAD
1000
AcDbSavedByObjectVersion
1070
     0
  0
ACAD_PROXY_OBJECT
  5
39
102
{ACAD_REACTORS
330
2A
102
}
330
2A
100
AcDbProxyObject
 90
      499
 91
      501
 93
      444
310
42D19858D95C185D1D195C9B90F409028333333333333E33F0000000000000F9010790141107004050150841D405064090741402480A0350
1001
ACAD
1000
AcDbSavedByObjectVersion
1070
     0
  0
ACAD_PROXY_OBJECT
  5
2B
102
{ACAD_REACTORS
330
2A
102
}
330
2A
100
AcDbProxyObject
 90
      499
 91
      501
 93
      380
310
41119B185D240901404333333333333E33F0000000000000F9010740A907004050150841D405064090741402480A1B50
1001
ACAD
1000
AcDbSavedByObjectVersion
1070
     0
  0
ACAD_PROXY_OBJECT
  5
2C
102
{ACAD_REACTORS
330
2A
102
}
330
2A
100
AcDbProxyObject
 90
      499
 91
      501
 93
      468
310
43519B185D15DA5D1A115919D95CD0140901404333333333333E33F0000000000000F90107409019070040501600405405064090741402480A1B50
1001
ACAD
1000
AcDbSavedByObjectVersion
1070
     0
  0
ACAD_PROXY_OBJECT
  5
2D
102
{ACAD_REACTORS
330
2A
102
}
330
2A
100
AcDbProxyObject
 90
      499
 91
      501
 93
      404
310
41D1DBDD5C985D5910240902404333333333333E33F0000000000000F9010740A9070040501641D405064090741402480A1B50
1001
ACAD
1000
AcDbSavedByObjectVersion
1070
     0
  0
ACAD_PROXY_OBJECT
  5
2E
102
{ACAD_REACTORS
330
2A
102
}
330
2A
100
AcDbProxyObject
 90
      499
 91
      501
 93
      492
310
4411DBDD5C985D5915DA5D1A115919D95CD0340902404333333333333E33F0000000000000F90107409019070040501600405405064090741402480A1B50
1001
ACAD
1000
AcDbSavedByObjectVersion
1070
     0
  0
ACAD_PROXY_OBJECT
  5
31
102
{ACAD_REACTORS
330
2A
102
}
330
2A
100
AcDbProxyObject
 90
      499
 91
      501
 93
      476
310
41921A5919195B90640502408333333333333E33F0000000000000F901079024090700405020000000000001110200405405064090740C02480A0340
1001
ACAD
1000
AcDbSavedByObjectVersion
1070
     0
  0
ACAD_PROXY_OBJECT
  5
3B
102
{ACAD_REACTORS
330
2A
102
}
330
2A
100
AcDbProxyObject
 90
      499
 91
      501
 93
      428
310
42529A5D1D195C93D999914409028333333333333E33F0000000000000F9010790141107004050150A41D405064090741402480A0350
1001
ACAD
1000
AcDbSavedByObjectVersion
1070
     0
  0
ACAD_PROXY_OBJECT
  5
38
102
{ACAD_REACTORS
330
2A
102
}
330
2A
100
AcDbProxyObject
 90
      499
 91
      501
 93
      444
310
42D31A5B995C185D1D195C9B90E409028333333333333E33F0000000000000F9010790141107004050750841D405064090741402483A0350
1001
ACAD
1000
AcDbSavedByObjectVersion
1070
     0
  0
ACAD_PROXY_OBJECT
  5
3C
102
{ACAD_REACTORS
330
2A
102
}
330
2A
100
AcDbProxyObject
 90
      499
 91
      501
 93
      444
310
42D3DD995C9A185B99D3D999915409028333333333333E33F0000000000000F9010790141107004050150941D405064090741402480A0350
1001
ACAD
1000
AcDbSavedByObjectVersion
1070
     0
  0
ACAD_PROXY_OBJECT
  5
33
102
{ACAD_REACTORS
330
2A
102
}
330
2A
100
AcDbProxyObject
 90
      499
 91
      501
 93
      428
310
425499585B1A5CDD1A58D08409038333333333333E33F0000000000000F9010740A907004050150800405405064090740C02480A1B40
1001
ACAD
1000
AcDbSavedByObjectVersion
1070
     0
  0
ACAD_PROXY_OBJECT
  5
42
102
{ACAD_REACTORS
330
2A
102
}
330
2A
100
AcDbProxyObject
 90
      499
 91
      501
 93
      420
310
4194DA1859195911B40902404333333333333E33F0000000000000F9010740A41107004050150800405405064090840C02480A0B40
1001
ACAD
1000
AcDbSavedByObjectVersion
1070
     0
  0
ACAD_PROXY_OBJECT
  5
41
102
{ACAD_REACTORS
330
2A
102
}
330
2A
100
AcDbProxyObject
 90
      499
 91
      501
 93
      516
310
4454DA18591959081DDA5D1A08195919D95CD1A40902404333333333333E33F0000000000000F901074090142907004050250800405405064090740C02480A0B40
1001
ACAD
1000
AcDbSavedByObjectVersion
1070
     0
  0
ACAD_PROXY_OBJECT
  5
3E
102
{ACAD_REACTORS
330
2A
102
}
330
2A
100
AcDbProxyObject
 90
      499
 91
      501
 93
      532
310
4394DA1859195CC81BD98811DC985E5174090240C333333333333E33F0000000000000F901079024090741D01000000000000111010841D405064090740C02480A0340
1001
ACAD
1000
AcDbSavedByObjectVersion
1070
     0
  0
ACAD_PROXY_OBJECT
  5
3F
102
{ACAD_REACTORS
330
2A
102
}
330
2A
100
AcDbProxyObject
 90
      499
 91
      501
 93
      476
310
41D4DAD95D18DA1E51840502408333333333333E33F0000000000000F901079024090741D01000000000000111010B41D405064090741802480A0340
1001
ACAD
1000
AcDbSavedByObjectVersion
1070
     0
  0
ACAD_PROXY_OBJECT
  5
37
102
{ACAD_REACTORS
330
2A
102
}
330
2A
100
AcDbProxyObject
 90
      499
 91
      501
 93
      412
310
41D51A1A58DAD95B90D409028333333333333E33F0000000000000F9010790141107004050150C41D405064090741402480A0350
1001
ACAD
1000
AcDbSavedByObjectVersion
1070
     0
  0
ACAD_PROXY_OBJECT
  5
30
102
{ACAD_REACTORS
330
2A
102
}
330
2A
100
AcDbProxyObject
 90
      499
 91
      501
 93
      420
310
4255DA5C99599C985B595059028333333333333E33F0000000000000F90107901411070040501600405405064090740C02480A0340
1001
ACAD
1000
AcDbSavedByObjectVersion
1070
     0
  0
ACAD_PROXY_OBJECT
  5
40
102
{ACAD_REACTORS
330
2A
102
}
330
2A
100
AcDbProxyObject
 90
      499
 91
      501
 93
      404
310
41560B54985E51940902404000000000000E03F0000000000000F9010740501907004050150841D405064090740C02480A1B40
1001
ACAD
1000
AcDbSavedByObjectVersion
1070
     0
  0
XRECORD
  5
224
102
{ACAD_REACTORS
330
21A
102
}
330
21A
100
AcDbXrecord
340
0
  0
XRECORD
  5
223
102
{ACAD_REACTORS
330
21A
102
}
330
21A
100
AcDbXrecord
 90
        0
  0
XRECORD
  5
23A
102
{ACAD_REACTORS
330
21A
102
}
330
21A
100
AcDbXrecord
1000
DSTYLE
1002
{
1070
   179
 70
     1
1070
   171
 70
     3
1070
   143
 40
0.03937
1070
   274
 70
     3
1070
   285
 70
     8
1070
    41
 40
2.5
1070
   141
 40
2.5
1070
   176
 70
     7
1070
   177
 70
     7
1070
   178
 70
     7
1070
   271
 70
     2
1070
    43
 40
3.75
1070
   278
 70
    44
1070
    44
 40
1.25
1070
    42
 40
0.625
1070
   147
 40
0.625
1070
   144
 40
6.0
1070
   371
 70
    13
1070
   372
 70
    13
1070
    77
 70
     1
1070
   272
 70
     2
1070
    73
 70
     0
1070
   172
 70
     1
1070
    74
 70
     0
1070
   283
 70
     0
1070
   340
340
73
1070
   140
 40
3.5
1070
   284
 70
     8
1070
   288
 70
     1
1070
    78
 70
     8
1002
}
  0
XRECORD
  5
225
102
{ACAD_REACTORS
330
21A
102
}
330
21A
100
AcDbXrecord
  1
{72757972-7274-e577-e277-747077b063b5}
  0
XRECORD
  5
21D
102
{ACAD_REACTORS
330
21A
102
}
330
21A
100
AcDbXrecord
  1

  0
XRECORD
  5
222
102
{ACAD_REACTORS
330
21A
102
}
330
21A
100
AcDbXrecord
 90
        0
  0
XRECORD
  5
21F
102
{ACAD_REACTORS
330
21A
102
}
330
21A
100
AcDbXrecord
340
1A
  0
XRECORD
  5
221
102
{ACAD_REACTORS
330
21A
102
}
330
21A
100
AcDbXrecord
 90
    10269
  0
XRECORD
  5
220
102
{ACAD_REACTORS
330
21A
102
}
330
21A
100
AcDbXrecord
340
19
  0
XRECORD
  5
227
102
{ACAD_REACTORS
330
21A
102
}
330
21A
100
AcDbXrecord
 40
0.0
  0
XRECORD
  5
22A
102
{ACAD_REACTORS
330
21A
102
}
330
21A
100
AcDbXrecord
340
0
  0
XRECORD
  5
230
102
{ACAD_REACTORS
330
21A
102
}
330
21A
100
AcDbXrecord
 10
0.0
 20
0.0
 30
0.0
  0
XRECORD
  5
22C
102
{ACAD_REACTORS
330
21A
102
}
330
21A
100
AcDbXrecord
 10
0.0
 20
0.0
 30
0.0
  0
XRECORD
  5
22F
102
{ACAD_REACTORS
330
21A
102
}
330
21A
100
AcDbXrecord
 10
0.0
 20
0.0
 30
0.0
  0
XRECORD
  5
22D
102
{ACAD_REACTORS
330
21A
102
}
330
21A
100
AcDbXrecord
 10
0.0
 20
0.0
 30
0.0
  0
XRECORD
  5
22E
102
{ACAD_REACTORS
330
21A
102
}
330
21A
100
AcDbXrecord
 10
0.0
 20
0.0
 30
0.0
  0
XRECORD
  5
22B
102
{ACAD_REACTORS
330
21A
102
}
330
21A
100
AcDbXrecord
 10
0.0
 20
0.0
 30
0.0
  0
XRECORD
  5
228
102
{ACAD_REACTORS
330
21A
102
}
330
21A
100
AcDbXrecord
340
0
  0
XRECORD
  5
229
102
{ACAD_REACTORS
330
21A
102
}
330
21A
100
AcDbXrecord
 70
     0
  0
XRECORD
  5
21E
102
{ACAD_REACTORS
330
21A
102
}
330
21A
100
AcDbXrecord
  1

  0
XRECORD
  5
21B
102
{ACAD_REACTORS
330
21A
102
}
330
21A
100
AcDbXrecord
 90
        1
  0
XRECORD
  5
21C
102
{ACAD_REACTORS
330
21A
102
}
330
21A
100
AcDbXrecord
 90
       70
  0
XRECORD
  5
233
102
{ACAD_REACTORS
330
21A
102
}
330
21A
100
AcDbXrecord
340
0
  0
XRECORD
  5
239
102
{ACAD_REACTORS
330
21A
102
}
330
21A
100
AcDbXrecord
 10
0.0
 20
0.0
 30
0.0
  0
XRECORD
  5
235
102
{ACAD_REACTORS
330
21A
102
}
330
21A
100
AcDbXrecord
 10
0.0
 20
0.0
 30
0.0
  0
XRECORD
  5
238
102
{ACAD_REACTORS
330
21A
102
}
330
21A
100
AcDbXrecord
 10
0.0
 20
0.0
 30
0.0
  0
XRECORD
  5
236
102
{ACAD_REACTORS
330
21A
102
}
330
21A
100
AcDbXrecord
 10
0.0
 20
0.0
 30
0.0
  0
XRECORD
  5
237
102
{ACAD_REACTORS
330
21A
102
}
330
21A
100
AcDbXrecord
 10
0.0
 20
0.0
 30
0.0
  0
XRECORD
  5
234
102
{ACAD_REACTORS
330
21A
102
}
330
21A
100
AcDbXrecord
 10
0.0
 20
0.0
 30
0.0
  0
XRECORD
  5
231
102
{ACAD_REACTORS
330
21A
102
}
330
21A
100
AcDbXrecord
340
0
  0
XRECORD
  5
232
102
{ACAD_REACTORS
330
21A
102
}
330
21A
100
AcDbXrecord
 70
     0
  0
XRECORD
  5
226
102
{ACAD_REACTORS
330
21A
102
}
330
21A
100
AcDbXrecord
  1
{FAEB1C32-E019-11D5-929B-00C0DF256EC4}
  0
DICTIONARYVAR
  5
254
102
{ACAD_REACTORS
330
6E
102
}
330
6E
100
DictionaryVariables
280
     0
  1
1:1
  0
DICTIONARYVAR
  5
23C
102
{ACAD_REACTORS
330
6E
102
}
330
6E
100
DictionaryVariables
280
     0
  1
Standard
  0
DICTIONARYVAR
  5
23B
102
{ACAD_REACTORS
330
6E
102
}
330
6E
100
DictionaryVariables
280
     0
  1
Onshape-Standard
  0
DICTIONARYVAR
  5
23F
102
{ACAD_REACTORS
330
6E
102
}
330
6E
100
DictionaryVariables
280
     0
  1
2
  0
DICTIONARYVAR
  5
240
102
{ACAD_REACTORS
330
6E
102
}
330
6E
100
DictionaryVariables
280
     0
  1
1
  0
DICTIONARYVAR
  5
255
102
{ACAD_REACTORS
330
6E
102
}
330
6E
100
DictionaryVariables
280
     0
  1
1
  0
DICTIONARYVAR
  5
6F
102
{ACAD_REACTORS
330
6E
102
}
330
6E
100
DictionaryVariables
280
     0
  1
0
  0
XRECORD
  5
1B9
102
{ACAD_REACTORS
330
1B8
102
}
330
1B8
100
AcDbXrecord
 70
     0
  0
XRECORD
  5
1BC
102
{ACAD_REACTORS
330
1B8
102
}
330
1B8
100
AcDbXrecord
 90
        0
  0
ACAD_PROXY_OBJECT
  5
1C2
102
{ACAD_REACTORS
330
1B8
102
}
330
1B8
100
AcDbProxyObject
 90
      499
 91
      512
 93
       34
310
40C8804040
  0
XRECORD
  5
1C1
102
{ACAD_REACTORS
330
1B8
102
}
330
1B8
100
AcDbXrecord
 90
        5
  0
XRECORD
  5
1BD
102
{ACAD_REACTORS
330
1B8
102
}
330
1B8
100
AcDbXrecord
 90
        3
  0
XRECORD
  5
1BF
102
{ACAD_REACTORS
330
1B8
102
}
330
1B8
100
AcDbXrecord
 90
        0
  0
ACAD_PROXY_OBJECT
  5
1C0
102
{ACAD_REACTORS
330
1B8
102
}
330
1B8
100
AcDbProxyObject
 90
      499
 91
      512
 93
       34
310
40C8804040
  0
ACAD_PROXY_OBJECT
  5
1BE
102
{ACAD_REACTORS
330
1B8
102
}
330
1B8
100
AcDbProxyObject
 90
      499
 91
      512
 93
       34
310
40C8804040
  0
XRECORD
  5
1BB
102
{ACAD_REACTORS
330
1B8
102
}
330
1B8
100
AcDbXrecord
 90
        0
  0
XRECORD
  5
1BA
102
{ACAD_REACTORS
330
1B8
102
}
330
1B8
100
AcDbXrecord
 90
        1
  0
DICTIONARY
  5
258
330
45
100
AcDbDictionary
280
     1
  3
ACAD_XREC_ROUNDTRIP
360
259
  0
DICTIONARY
  5
256
330
44
100
AcDbDictionary
280
     1
  3
ACAD_XREC_ROUNDTRIP
360
257
  0
DICTIONARY
  5
25A
330
46
100
AcDbDictionary
280
     1
  3
ACAD_XREC_ROUNDTRIP
360
25B
  0
XRECORD
  5
259
102
{ACAD_REACTORS
330
258
102
}
330
258
100
AcDbXrecord
102
MATERIAL
148
0.0
149
0.0
149
0.0
 93
        0
 94
      127
282
     0
 72
     1
 77
     1
171
     1
175
     1
179
     1
273
     0
  0
XRECORD
  5
257
102
{ACAD_REACTORS
330
256
102
}
330
256
100
AcDbXrecord
102
MATERIAL
148
0.0
149
0.0
149
0.0
 93
        0
 94
      127
282
     0
 72
     1
 77
     1
171
     1
175
     1
179
     1
273
     0
  0
XRECORD
  5
25B
102
{ACAD_REACTORS
330
25A
102
}
330
25A
100
AcDbXrecord
102
MATERIAL
148
0.0
149
0.0
149
0.0
 93
        0
 94
      127
282
     0
 72
     1
 77
     1
171
     1
175
     1
179
     1
273
     0
  0
ENDSEC
  0
EOF
